<svg width="202" height="202" viewBox="0 0 202 202" fill="none" xmlns="http://www.w3.org/2000/svg">
<mask id="mask0_1514_866" style="mask-type:alpha" maskUnits="userSpaceOnUse" x="0" y="0" width="202" height="202">
<circle cx="101" cy="101" r="101" fill="#D9D9D9"/>
</mask>
<g mask="url(#mask0_1514_866)">
<g clip-path="url(#clip0_1514_866)">
<path d="M180.807 221.25C178.477 221.596 175.628 221.293 173.772 221.293C143.86 220.775 113.906 220.258 83.9941 219.696C67.4629 219.394 50.4569 219.006 35.3069 212.445C31.8971 210.978 28.5304 209.078 26.4586 206.014C24.171 202.647 23.9552 198.461 24.2142 194.49C24.4732 190.691 24.0847 187.109 24.0847 183.267C24.0847 182.49 24.0847 168.894 24.0847 168.894H185.037C185.037 168.894 185.037 190.821 185.037 192.159C185.037 199.151 185.037 206.187 185.037 213.179C185.037 215.639 185.728 218.661 183.483 220.258C182.75 220.775 181.843 221.078 180.807 221.25Z" fill="#008FD6"/>
<path d="M-41.2632 37.0764C-41.1337 42.9897 -39.7957 48.6008 -36.688 53.176C-32.4149 59.4777 -19.0777 59.6504 -11.9128 60.5568C-0.820055 61.938 10.4022 62.2401 21.5381 61.3337C42.6445 59.6072 64.3983 53.176 78.4261 39.105C92.4539 25.0341 96.209 2.2012 82.7423 -11.9992C72.3834 -22.9625 54.9889 -26.4586 38.7599 -27.8398C31.9402 -28.4009 23.5667 -29.9548 16.7902 -28.8757C11.1359 -27.9693 5.05003 -24.8185 -0.129459 -22.315C-11.9128 -16.5744 -22.7466 -8.41675 -30.3431 2.37385C-36.2995 10.8768 -41.5222 24.6456 -41.2632 37.0764Z" fill="#CFF0FF"/>
<path d="M65.9954 55.1183L62.0244 44.1982C62.0244 44.1982 45.1479 32.1127 43.4646 32.4149C42.3856 32.6307 34.53 37.0764 27.2787 41.4358C24.9479 42.7738 21.1497 44.6298 20.4591 44.9751C15.0206 47.867 9.58213 50.7157 4.10051 53.5644C0.0432458 55.6794 -5.48154 57.4491 -9.02086 60.2978C-12.1717 62.8012 -14.373 68.2397 -16.0995 71.779C-18.2144 76.1815 -19.9409 80.7999 -21.2358 85.5046C-23.0486 91.979 -24.1277 99.0144 -21.9696 105.402C-19.9841 111.316 -13.8982 117.315 -7.16488 116.495C-1.76958 115.848 4.05735 112.74 9.23684 110.97L34.0984 83.7781C33.4941 84.7277 32.7603 85.6773 32.415 86.3679C31.1202 89.0871 32.3287 92.0221 34.9185 93.6623C35.6522 94.1371 36.5155 94.4824 37.3787 94.5687C39.1484 94.7414 40.8317 93.835 42.3856 93.0149C45.4501 91.3315 47.565 92.1948 50.8022 90.7273C54.4279 89.0871 59.1326 85.2888 63.233 85.2888C64.571 85.332 65.9091 85.2888 67.2471 85.2456L65.9954 55.1183Z" fill="#6A6A6A"/>
<path d="M26.4155 44.7594C25.7249 45.5363 24.7321 46.4859 24.2142 48.2555C23.6099 50.2842 24.171 52.7444 26.3723 54.7299C27.9693 56.1974 29.9979 57.147 31.9403 58.0102C34.4005 59.0893 36.9471 59.9957 39.4937 60.9021C40.1411 61.1179 40.7885 61.3769 41.2202 61.8948C42.4287 63.3624 40.8317 64.6572 39.6663 65.391C38.3715 66.2111 36.9039 67.0743 36.386 68.585C35.4796 71.3042 35.5227 75.1025 32.1129 76.2248C28.7031 77.347 21.5381 75.9658 17.4809 75.7931C13.4236 75.6205 9.79795 76.2248 6.69026 80.4115C6.69026 80.4115 -4.27299 78.7282 -5.26573 81.879C-6.25846 85.0299 3.66889 86.4542 6.51761 85.332C9.36633 84.2098 16.186 85.3752 18.1715 82.0948C20.4159 78.3397 31.4655 81.4906 35.6091 78.3829C39.7526 75.2752 37.0334 71.8654 39.321 69.2756C41.6086 66.6859 45.8817 65.8226 45.5364 62.8013C45.2343 59.8231 38.5873 59.0893 31.8971 56.1543C28.0988 54.4709 26.1565 51.9675 26.1133 49.3778C26.0702 47.4786 26.9766 46.0974 27.5809 45.191C29.1779 42.7307 27.4082 43.6803 26.4155 44.7594Z" fill="#008FD6"/>
<path d="M65.909 89.864C65.6932 88.0944 65.9954 80.0661 63.5783 80.4114C60.2548 80.9294 57.5355 83.217 54.8163 85.2456C51.9244 87.3606 53.392 89.4324 50.1548 90.9862C48.3851 91.8495 41.9971 92.4538 40.1843 93.1444C39.6232 93.3602 39.0189 93.5328 38.4578 93.4033C37.9398 93.2738 37.5945 92.8422 37.2492 92.4969C35.5659 90.6841 33.9689 88.8713 32.5014 86.8858C28.8326 81.9221 25.2932 82.4401 20.1569 82.2674C14.5026 82.0948 9.06417 80.2388 3.92785 77.4332C-3.10762 73.5918 -10.2726 69.1029 -17.9986 69.1461C-28.7029 69.1892 -37.2491 80.4978 -38.8029 90.4683C-39.7093 96.2089 -38.2418 102.424 -34.7457 107.086C-30.9905 112.049 -26.0269 113.301 -20.2863 114.812C-17.3512 115.589 -14.9773 112.093 -12.2149 113.862C-9.27984 115.805 -4.66147 114.898 -4.66147 114.898C-6.21531 112.611 -4.22984 110.711 1.89922 111.661C2.58981 111.747 3.28041 111.704 3.97101 111.661C15.9702 111.1 28.2283 107.431 40.0116 104.841C45.968 103.546 51.9244 102.165 57.8808 100.827C62.5424 99.7482 67.0313 99.2734 66.168 91.5473C66.0385 90.9862 65.9522 90.4251 65.909 89.864Z" fill="#008FD6"/>
<path d="M84.4689 88.2237C85.9796 87.7058 87.3176 86.972 88.1808 86.1088C89.8642 84.5118 89.8642 82.5695 88.2672 81.1883C87.6197 80.584 87.1449 80.1524 85.8932 79.9366C84.3394 79.6776 82.6129 79.6776 80.9296 79.8934C78.6419 80.1955 76.3975 80.8861 74.7573 81.8789C74.6278 81.9652 74.4552 82.0515 74.3257 82.0084C74.2394 82.0084 74.1962 81.9652 74.1531 81.922C73.0308 81.1451 71.8655 80.325 69.7937 80.1955C68.024 80.1092 66.0817 80.584 64.6142 81.2314C62.6719 82.0947 61.7223 83.0011 61.5065 85.0297C61.377 86.152 58.2261 91.2451 57.665 88.6122C57.4492 87.5763 57.1471 86.0225 55.9817 85.7203C54.7731 85.4182 54.8595 85.0729 52.8308 85.5908C51.3633 85.9361 49.9821 88.2237 49.3347 89.6049C48.1261 88.828 46.6154 88.6122 45.2343 88.9143C44.5437 89.0438 43.8962 89.346 43.3351 89.7344C42.8172 90.0797 42.3424 90.5977 41.6949 90.684C41.0907 90.7703 40.3569 90.3819 40.2706 89.7776C40.2274 89.3891 40.4864 88.9575 40.3137 88.6122C40.0979 88.1374 39.4073 88.1374 39.062 87.749C38.7167 87.3173 38.9757 86.6699 38.7599 86.152C38.4146 85.2455 37.1197 85.4182 36.2133 85.7203C36.7313 84.2528 35.8249 82.44 34.3142 82.0084C32.8035 81.5767 31.0338 82.6126 30.7317 84.1665C29.3505 83.7349 28.5736 83.6485 27.5377 84.6844C26.3291 85.893 25.3364 91.5904 22.9193 88.9575C22.6603 88.6985 22.4013 88.3964 22.056 88.2669C21.4086 88.0079 20.5885 88.3964 20.3727 89.087C20.2864 89.3891 20.3296 89.7776 20.2001 90.0797C20.0274 90.4682 19.5526 90.684 19.4231 91.1156C19.2505 91.5904 19.5958 92.1084 19.8116 92.54C20.0706 92.9716 20.2001 93.619 19.8116 93.9212C19.4663 94.1802 18.9915 94.0075 18.6031 93.7917C16.8334 92.799 14.5026 93.4032 13.6394 95.3455C13.3804 95.9498 13.2941 96.6404 13.3372 97.2878C13.3804 97.9353 13.8984 98.5827 13.9415 99.187C13.9415 99.5323 12.3013 100.137 10.7907 102.295C9.62528 103.978 9.23682 106.266 9.23682 108.553C9.23682 106.309 20.5022 106.611 21.6244 106.481C22.2719 106.438 23.0056 106.309 23.5667 106.525C24.2573 106.74 24.5595 107.345 25.2501 107.647C26.5018 108.208 28.2714 107.474 29.8253 107.431C32.5877 107.302 32.5445 108.855 34.0984 109.805C35.6954 110.755 38.1125 110.97 40.2274 110.496C42.9035 109.891 45.0184 108.381 46.7449 106.827C48.9462 104.841 50.9317 102.165 54.3847 101C57.665 99.9208 61.377 99.7481 64.5278 98.3237C67.7219 96.8562 69.5778 94.3528 72.3402 92.54C76.1817 89.8639 80.1095 89.7344 84.4689 88.2237Z" fill="#0062BA"/>
<path d="M56.8881 118.783C55.7227 118.524 73.2466 104.107 71.6496 104.107C69.5347 104.107 65.9522 104.28 61.5928 104.539C59.2188 104.669 56.9744 100.827 54.2552 101C52.0107 101.172 49.3778 105.359 47.047 105.532C38.5441 106.179 29.9116 107.258 21.4086 107.129C18.3441 107.086 16.7902 106.999 14.2868 108.812C10.2727 111.747 6.21543 114.682 2.4603 117.963C-0.647395 120.768 -3.71193 123.79 -6.04269 127.329C-13.6393 138.724 -12.776 154.478 -5.74056 166.175C-0.949532 174.117 6.38807 180.289 14.5889 184.476C18.2577 186.332 22.9624 188.835 27.106 188.663C32.156 188.49 37.465 187.67 42.4718 186.979C47.3492 186.332 52.2265 185.425 56.6291 183.483C58.3556 182.706 60.0821 181.713 60.9885 180.246C61.7223 179.081 61.8518 177.699 61.9812 176.405C63.2761 162.808 62.5855 149.169 61.2043 135.616C60.7727 131.257 60.2547 126.94 60.0821 122.624C60.0389 120.164 58.7872 119.171 56.8881 118.783Z" fill="#CFF0FF"/>
<path d="M77.5197 178.52C73.7646 177.484 69.2757 176.879 65.909 174.808C63.1466 173.081 61.5496 169.973 59.8663 167.254C55.4205 160.176 49.0757 154.349 41.997 149.903C36.2133 146.234 29.7389 143.429 22.9624 142.306C19.5957 141.745 18.6462 141.443 15.2363 141.616C14.1573 141.659 13.0351 141.357 12.0855 141.918C11.8697 142.047 11.956 140.839 11.7402 140.968C11.0496 141.529 10.1432 143.385 9.36626 141.875C8.76198 140.666 8.24403 140.235 7.89873 140.321C6.77651 140.537 8.15771 141.659 7.63976 142.177C7.03549 141.357 5.99959 139.717 3.75515 139.371C3.36668 139.328 2.50344 139.458 3.2372 139.803C4.18677 140.235 4.79104 140.537 5.22267 141.573C5.5248 142.306 5.35215 142.954 5.35215 142.954C5.35215 142.954 4.10044 141.141 2.02865 140.407C1.64019 140.278 1.81284 140.666 1.98549 140.839C3.32352 142.091 3.28036 143.299 3.10771 143.903C2.71925 143.515 2.2013 143.213 1.68335 143.083C1.12224 142.954 0.517966 143.04 0.086342 143.342C-0.388444 143.644 -1.68332 144.723 -3.8846 145.285C-7.42391 146.191 -11.7833 145.371 -14.2004 148.22C-17.9987 152.665 -19.4231 160.435 -20.5453 166.002C-21.7538 172.045 -22.4013 178.39 -20.5453 184.217C-14.6752 202.216 8.63249 195.051 22.4445 193.67C38.7167 192.029 55.0752 190.389 71.1316 187.325C86.2816 184.433 77.8218 179.081 77.5197 178.52Z" fill="#3F3161"/>
<path d="M59.4779 90.2524C58.3556 90.1229 57.4492 91.0293 57.1903 91.8494C56.9313 92.6263 56.8018 93.5759 55.8091 94.0507C54.9026 93.5759 55.2479 92.5831 55.4638 91.8062C55.6796 91.0293 55.2911 89.9071 54.1257 89.9934C53.5214 90.0366 53.0467 90.3819 52.7445 90.7703C52.0539 91.5904 51.8813 92.54 51.3202 93.4032C50.8022 94.2665 48.9462 94.9139 47.6082 94.8708C48.5578 93.7054 48.6873 92.6263 48.1693 91.9789C47.6514 91.3314 46.7018 91.3746 45.968 91.8925C45.2343 92.3673 44.9321 93.0579 44.63 93.7054C44.3279 94.3528 43.8962 95.0002 43.1193 95.4319C42.774 95.6045 42.3424 95.734 41.9971 95.9498C41.4791 96.2951 41.3497 96.8131 41.0907 97.2878C40.8317 97.7626 40.3138 98.2374 39.6232 98.2374C39.7095 97.59 39.7958 96.9425 39.5368 96.3383C39.2779 95.734 38.7167 95.1729 37.8103 95.0434C36.9039 94.9139 35.7817 95.3455 35.6091 95.9498C35.4364 96.5541 36.0838 97.072 36.0838 97.6331C36.0838 98.3669 35.0911 99.187 35.6954 99.7481C35.868 99.9208 36.2133 100.05 36.2997 100.266C36.4291 100.611 35.9112 100.913 35.868 101.259C35.7385 101.993 37.3787 102.036 38.1125 102.467C39.1052 103.072 38.4578 104.237 37.5945 105.057C37.1197 105.489 36.6018 105.963 35.9112 106.179C35.2206 106.438 34.271 106.395 33.8394 106.007C33.3646 105.618 33.7099 104.755 32.9762 104.582C32.5877 104.496 32.1992 104.625 31.8539 104.539C31.336 104.41 31.0338 103.892 30.9475 103.374C30.818 102.856 30.818 102.338 30.6885 101.82C30.3001 100.482 28.6167 99.7481 27.365 100.266C27.1924 100.352 27.0197 100.439 26.8903 100.611C26.7176 100.913 26.8471 101.345 27.0197 101.69C27.4082 102.424 27.9261 103.201 27.883 104.064C27.7967 105.1 26.8039 105.877 25.768 105.92C24.7321 105.92 23.7826 105.316 23.2214 104.453C22.833 103.892 22.6172 103.244 22.2719 102.64C21.6676 101.561 20.6749 100.655 19.4663 100.266C18.2578 99.8776 16.8766 100.093 15.927 100.913C15.5385 101.216 15.2364 101.647 14.8048 101.906C14.4595 102.122 14.071 102.208 13.6826 102.338C11.6108 103.115 9.92743 105.575 10.4885 107.776C11.136 110.15 12.5172 112.265 13.7689 114.38C15.7544 117.574 18.2578 120.466 21.1928 122.84C22.2287 123.66 23.2646 124.437 24.4732 124.955C25.8112 125.559 27.2356 125.905 28.7031 126.077C32.7172 126.509 36.8176 125.602 40.4001 123.79C43.9826 121.977 47.1766 119.387 49.8958 116.409C51.2338 114.941 52.4856 113.431 53.9099 112.006C55.0321 110.884 56.2838 109.848 57.3629 108.64C59.4779 106.352 61.0317 103.633 62.5855 100.957C64.4415 97.7195 66.8586 94.7844 66.9018 90.943C66.9018 89.2596 67.0313 86.8426 65.089 86.3246C62.1108 85.4182 57.7082 88.0511 59.4779 90.2524Z" fill="#3F3161"/>
<path d="M54.0394 135.184C52.7877 134.882 51.3202 135.789 51.0612 137.04C50.9749 137.429 51.0181 137.904 51.3634 138.163C51.5792 138.335 51.8813 138.378 52.1834 138.378C52.9604 138.422 53.8236 138.465 54.2984 137.86C54.6437 137.429 54.6437 136.825 54.6005 136.307C54.5574 135.918 54.5142 135.443 54.1689 135.184" fill="#008FD6"/>
<path d="M41.4792 153.226C40.6159 153.399 39.839 154.003 39.4506 154.823C39.2779 155.169 39.2348 155.6 39.4506 155.902C39.6232 156.161 39.9253 156.248 40.2275 156.291C40.9181 156.334 41.6518 155.902 41.8677 155.255C42.1266 154.608 41.8677 153.787 41.3497 153.356" fill="#008FD6"/>
<path d="M16.4881 109.028C15.4954 108.942 14.5458 108.683 13.5531 108.208C12.1719 107.474 11.136 106.223 10.1001 105.057C7.63981 102.252 4.74793 99.4893 1.12229 98.5398C-0.517884 98.1081 -2.24438 98.1081 -3.92771 98.1513C-7.98498 98.324 -9.27985 98.9714 -10.7474 102.727C-12.0422 106.05 -12.3875 109.676 -11.6106 113.172C-10.7042 117.143 -8.45976 116.97 -5.04993 117.661C-5.22258 116.193 0.0863902 116.754 0.9928 116.841C2.33083 117.013 3.62571 117.143 4.96374 117.229C5.05006 116.366 5.13639 115.459 5.22272 114.596C5.26588 114.294 5.26588 113.992 5.30904 113.69C8.93468 113.992 12.6035 114.294 16.2291 114.596C16.3586 112.783 16.4449 110.884 16.4881 109.028Z" fill="#EFEFEF"/>
<path d="M50.4136 110.15C50.1546 108.985 49.464 107.992 48.7734 107.043C46.7016 107.259 42.6012 106.956 40.9179 108.122C36.9469 110.841 35.2204 110.971 31.4222 109.978C29.782 109.546 25.4226 107.992 21.2358 110.927C19.682 112.006 18.4734 109.158 16.6174 109.028C16.5743 110.366 16.5311 111.704 16.4448 113.085C16.2721 116.236 16.0132 119.344 15.7974 122.495C16.8333 122.624 17.826 122.711 18.8619 122.797C20.6747 122.97 22.5739 123.488 24.3867 123.272C26.7175 123.013 29.0482 122.279 31.2927 121.545C35.6089 120.121 39.7093 118.135 43.8098 116.15C46.3995 114.898 51.3632 114.251 50.4136 110.15Z" fill="#3F3161"/>
<path d="M112.438 82.8717C104.583 81.3178 96.468 81.2746 88.5261 82.1811C82.4402 82.8717 74.3257 84.3392 69.0167 87.6627C66.8154 89.0439 64.9595 90.6841 62.5424 91.7199C60.6432 92.54 58.9167 93.5328 57.1039 94.396C55.4206 95.2161 53.6078 96.1225 52.4424 97.6332C51.6223 98.6691 51.018 100.093 49.7663 100.525C49.0325 100.784 48.2125 100.655 47.4355 100.784C46.3133 100.957 45.2342 101.604 44.6731 102.597C43.8962 103.849 43.9825 105.402 44.0257 106.87C41.6086 107.388 40.2706 108.294 39.58 109.719C38.2851 112.524 40.2706 116.236 36.6449 115.071C35.2637 114.639 33.6236 115.546 33.2783 116.97C32.6308 116.064 31.2928 115.718 30.2569 116.107C29.221 116.495 28.4441 117.531 28.3146 118.653C27.3219 117.704 26.6744 116.495 26.9766 115.114C27.1924 114.208 27.624 113.301 27.5377 112.352C27.4082 111.057 26.1996 109.978 24.9048 109.762C23.6099 109.546 22.2719 110.064 21.236 110.884C21.1065 109.33 20.9338 107.69 19.9842 106.481C19.0347 105.273 16.9629 104.755 15.927 105.92C15.3227 103.028 12.6035 103.633 11.0928 105.748C8.50305 109.373 -3.88455 107.69 -7.07857 116.581C-7.07857 116.538 -9.75464 116.107 -9.97045 116.107C-11.3948 115.977 -12.8192 116.02 -14.2004 116.279C-19.8978 117.272 -22.0991 121.459 -23.6529 126.725C-24.473 129.53 -24.6457 132.681 -23.4803 135.357C-21.1495 140.882 -16.5743 140.58 -11.7401 139.112C-6.64695 137.558 -1.33797 135.659 4.01416 135.098C7.38083 134.753 24.0847 142.738 30.818 150.507C33.8394 153.96 30.6454 160.348 30.6885 160.866C30.8612 162.506 30.1706 164.017 29.1347 165.269C28.6167 165.916 28.0125 166.434 27.365 166.952C26.3291 167.729 25.1637 168.204 24.7321 169.585C24.5595 170.146 24.5595 170.75 24.7753 171.311C24.8616 171.527 24.9911 171.743 25.1637 171.873C25.6817 172.218 26.5018 172.088 27.0629 172.088C27.7966 172.088 28.5736 172.088 29.3073 172.088C30.818 172.088 32.3287 172.088 33.7962 172.045C36.8176 172.045 39.7958 172.002 42.8172 172.002C48.8167 171.959 54.8163 171.916 60.8159 171.916C66.3838 171.873 71.9949 171.873 77.5629 171.829C90.5979 171.743 103.806 171.657 116.366 168.161C128.926 164.664 140.968 157.284 147.227 145.846C155.342 130.998 151.802 111.359 140.58 98.6691C132.811 89.864 123.013 84.9866 112.438 82.8717Z" fill="#CFF0FF"/>
<path d="M20.7612 128.278C20.5885 128.84 20.6317 129.53 20.3295 130.048C19.9842 130.652 19.38 130.955 18.8188 131.257C16.0564 132.767 14.2868 134.321 14.8479 137.602C9.06414 136.695 3.15089 137.817 -0.776885 142.608C-5.6974 148.608 -5.09313 157.931 -0.647398 164.276C3.79833 170.621 11.3517 174.29 18.9483 175.714C27.9261 177.354 39.2347 177.44 47.9966 175.325C50.3706 174.764 52.7445 173.901 54.8163 172.649C58.7441 170.275 61.8949 166.175 61.9381 161.557C61.9812 157.456 59.6936 153.701 59.3483 149.601C59.0894 146.579 59.6505 143.558 60.6432 140.709C61.0748 139.458 61.3338 138.594 62.3697 137.731C63.1898 137.04 64.2257 136.522 64.8731 135.616C66.168 133.89 65.6932 131.472 65.8227 129.314C65.909 127.804 66.3838 126.509 67.2039 125.257C67.2902 125.128 67.3765 124.998 67.4629 124.912C68.1103 123.962 68.8441 122.926 68.8009 121.718C68.6714 119.517 66.0817 118.351 65.1753 116.322C64.7868 115.416 64.7436 114.337 64.1825 113.517C63.6214 112.697 62.6287 112.308 61.6791 112.136C60.6432 111.92 59.6073 111.92 58.5714 112.049C57.9671 112.136 57.3197 112.308 56.7586 112.136C56.1543 111.963 55.7227 111.445 55.1616 111.143C53.9099 110.452 52.0539 110.496 50.8885 111.143C49.8094 111.704 49.0325 112.395 48.2988 113.431C47.9535 113.905 47.6513 114.51 47.0902 114.769C46.7018 114.941 46.2701 114.898 45.8385 114.984C44.7594 115.157 43.853 115.977 43.5509 117.013C43.3351 117.92 43.6804 119.991 42.3855 120.293C41.6517 120.466 40.7885 119.473 40.0979 119.214C37.8966 118.481 35.9975 119.603 34.5731 121.286C33.9688 121.977 33.5372 122.754 32.8466 123.358C31.077 124.998 29.1347 124.437 27.0197 124.049C25.2069 123.703 23.3509 124.567 22.0992 125.861C21.5381 126.509 21.0201 127.372 20.7612 128.278Z" fill="#008FD6"/>
<path d="M68.1103 135.357C67.7219 133.544 66.0386 131.947 64.7437 130.739C63.1898 129.271 61.895 128.063 59.6505 128.753C59.4347 128.84 59.2189 128.883 59.0031 128.969C54.989 130.523 52.0971 134.667 52.0539 138.983C49.7232 138.724 47.3061 139.673 45.7091 141.4C44.9753 142.177 43.5941 144.551 44.7163 147.961C43.8531 148.22 43.0762 148.867 42.7309 149.73C42.3424 150.55 42.3424 151.543 42.7309 152.406C42.9035 152.752 43.1193 153.054 43.2488 153.442C43.3783 153.787 43.4646 154.219 43.292 154.564C43.1193 154.953 42.6877 155.126 42.2992 155.169C39.8821 155.428 37.724 154.176 37.2061 153.744C36.6881 153.313 36.0407 152.406 35.1774 152.19C33.9689 151.888 32.4582 152.579 32.1561 153.787C31.5086 152.536 29.7821 152.19 28.4873 152.752C27.4945 153.183 26.7176 154.003 26.1565 154.91C25.9839 155.169 25.8112 155.471 25.6817 155.773C25.5522 156.032 25.4227 156.334 25.1638 156.507C24.9048 156.679 24.5163 156.679 24.3437 156.42C24.2574 156.291 24.2574 156.118 24.2574 155.989C24.3005 154.478 25.2069 153.226 24.6458 151.845C24.6027 151.716 24.2574 151.198 23.6531 151.284C22.7035 151.414 22.1424 152.493 21.9698 153.442C21.236 152.536 19.5958 153.097 19.121 154.176C18.6462 155.255 19.0347 156.507 19.5095 157.586C19.9843 158.665 20.5454 159.744 20.5022 160.952C20.0274 160.823 19.5095 160.78 18.9915 160.78C19.639 161.384 20.0274 162.29 19.9411 163.197C19.9411 163.413 19.8116 163.672 19.5958 163.672C19.5095 163.672 19.4232 163.585 19.3368 163.542C18.3873 162.679 15.927 159.614 14.3732 160.866C13.8121 161.341 14.0279 162.247 14.4595 162.852C14.8911 163.413 15.5386 163.844 15.927 164.492C16.3155 165.182 16.0997 166.218 15.2364 166.305C14.2005 166.434 13.4236 164.923 12.8625 164.276C12.6898 164.103 12.474 163.887 12.215 163.974C11.9561 164.06 11.9561 164.449 11.9992 164.751C12.1719 165.614 12.3445 166.52 12.5172 167.384C12.0856 166.909 11.6108 166.434 11.0928 166.002C10.8339 165.787 10.4886 165.571 10.1864 165.614C9.75479 165.7 9.53898 166.175 9.53898 166.564C9.58214 166.995 9.79796 167.34 10.0569 167.729C10.7907 168.851 11.5245 169.973 12.3014 171.052C11.3518 170.491 10.5749 170.448 9.58214 170.966C9.10736 171.225 9.15052 171.355 9.32317 171.527C10.2296 172.39 10.877 172.563 11.9561 173.211C13.8984 174.376 16.0565 174.203 16.2292 172.693C16.3586 171.614 14.9343 170.535 14.7185 169.455C15.7544 170.06 17.1356 171.786 17.783 172.434C18.042 172.693 18.0851 172.347 18.042 172.088C18.042 171.829 17.9125 171.527 17.8693 171.268C17.783 170.966 17.7398 170.707 17.6535 170.405C17.6535 170.319 17.6103 170.232 17.6535 170.189C17.6967 170.103 17.7398 170.06 17.8262 170.06C18.042 169.973 18.2578 170.06 18.4304 170.189C18.6031 170.319 18.7326 170.535 18.8621 170.707C19.2505 171.311 19.5958 171.916 19.898 172.52C19.9411 172.563 19.9411 172.606 19.9843 172.649C20.1569 172.779 20.2864 172.434 20.3296 172.304C21.0633 171.182 21.9266 170.966 21.9266 170.966C21.9266 170.966 21.7108 171.311 21.6676 171.398C21.5813 171.57 21.5381 171.7 21.495 171.873C21.4086 172.218 21.3655 172.563 21.4086 172.908C21.4518 173.599 21.7539 174.246 22.315 174.678C22.7035 174.98 23.1783 175.239 23.6099 175.455C24.0415 175.671 24.4732 175.887 24.948 176.102C26.5881 176.793 28.3578 177.138 30.1274 177.225C31.1633 177.268 32.5014 177.225 34.1847 176.966C35.3069 176.793 35.2206 176.016 35.9975 175.239C36.9039 174.333 37.5082 173.081 38.6304 172.477C39.6232 171.916 40.8749 171.873 41.9108 171.441C43.2056 170.923 44.4142 170.232 45.4501 169.326C46.8745 168.031 47.824 166.089 47.6082 164.19C47.4787 163.24 47.0471 162.334 46.5292 161.514C46.3133 161.168 46.0544 160.823 45.7522 160.478C45.968 160.434 46.227 160.348 46.4428 160.305C48.5578 159.83 50.6727 159.442 52.7877 159.053C53.8668 158.881 54.989 158.794 56.0249 158.492C56.6292 158.32 57.665 158.19 58.1398 157.888C58.3988 157.715 58.4851 157.413 58.5715 157.154C60.0821 151.629 62.3266 146.32 65.2185 141.357C66.3407 139.717 68.542 137.515 68.1103 135.357Z" fill="#3F3161"/>
<path d="M23.4803 166.003C23.4803 166.046 23.4803 166.132 23.4803 166.175C23.394 166.477 23.0055 166.564 22.7465 166.607C22.6602 166.607 22.617 166.65 22.5307 166.693C22.4876 166.779 22.4876 166.866 22.5307 166.952C22.5739 167.038 22.5739 167.168 22.617 167.297C22.617 167.384 22.6602 167.47 22.617 167.556C22.5739 167.729 22.4444 167.902 22.2717 167.988C22.1423 168.031 22.0128 168.031 21.8833 167.988C21.7538 167.902 21.7106 167.729 21.6675 167.556C21.6675 167.47 21.6675 167.384 21.5811 167.341C21.4948 167.254 21.3653 167.297 21.279 167.341C21.1927 167.384 21.1064 167.47 21.02 167.513C20.8474 167.6 20.6747 167.6 20.5021 167.513C20.3726 167.427 20.3294 167.168 20.4158 167.038C20.5021 166.909 20.6747 166.866 20.8474 166.823C20.8905 166.823 20.8905 166.779 20.8905 166.736C20.8905 166.693 20.8474 166.693 20.8474 166.693C20.6747 166.607 20.5021 166.52 20.4158 166.305C20.3726 166.132 20.3726 165.959 20.5452 165.873C20.7611 165.744 20.9337 165.873 21.1064 165.959C21.1495 166.003 21.2358 166.003 21.279 166.003C21.3222 166.003 21.3222 166.003 21.3653 165.959C21.4085 165.916 21.4085 165.873 21.4085 165.83C21.4085 165.614 21.3222 165.441 21.3222 165.269C21.3222 165.096 21.3653 164.837 21.538 164.751C21.7106 164.621 21.9696 164.708 22.0991 164.837C22.2286 164.967 22.3149 165.182 22.3149 165.398C22.3149 165.614 22.2717 165.787 22.2717 166.003C22.4444 165.916 22.6602 165.787 22.876 165.787C23.0487 165.787 23.1782 165.787 23.3076 165.916C23.394 165.873 23.4371 165.916 23.4803 166.003Z" fill="#CFF0FF"/>
<path d="M33.494 156.982V157.025C33.494 157.111 33.6235 157.197 33.7098 157.197C33.7961 157.197 33.9256 157.154 33.9688 157.068C34.0119 157.068 34.0551 157.025 34.0551 157.025C34.0551 157.025 34.0551 157.025 34.0983 157.068C34.2278 157.197 34.3572 157.327 34.5731 157.284C34.7025 157.241 34.7889 157.154 34.7889 157.025C34.7889 156.938 34.7889 156.809 34.7025 156.723C34.7457 156.809 35.0047 156.809 35.0478 156.766C35.1342 156.723 35.2205 156.593 35.2205 156.464C35.2205 156.205 34.9184 155.946 34.6162 156.118C34.9184 155.6 34.4004 155.083 34.0983 155.385C33.9256 155.557 34.0983 155.859 33.9688 155.903C33.8825 155.946 33.7961 155.773 33.5803 155.773C33.3645 155.773 33.235 155.946 33.235 156.118C33.1919 156.377 33.4077 156.593 33.6666 156.636C33.5803 156.723 33.5372 156.852 33.494 156.982Z" fill="#CFF0FF"/>
<path d="M31.2065 163.111C31.2065 163.24 31.1202 163.413 31.0339 163.542C31.2065 163.499 31.4223 163.542 31.5518 163.629C31.7676 163.801 31.6813 164.06 31.4655 164.146C31.1202 164.319 30.7317 164.103 30.7317 164.103C30.7317 164.103 30.7317 164.103 30.7317 164.146C30.6886 164.276 30.6454 164.405 30.6023 164.535C30.5591 164.664 30.4728 164.794 30.3864 164.88C30.3001 164.967 30.1706 165.053 30.0411 165.053C29.9117 165.053 29.739 165.01 29.6958 164.88C29.6527 164.794 29.6527 164.751 29.6527 164.664C29.6527 164.621 29.6958 164.535 29.6958 164.492C29.6958 164.449 29.739 164.405 29.739 164.362C29.739 164.319 29.739 164.276 29.739 164.233C29.6958 164.19 29.6095 164.19 29.5664 164.19C29.4369 164.233 29.3505 164.319 29.2211 164.319C29.0916 164.319 29.0053 164.276 28.9189 164.19C28.8326 164.103 28.8326 163.974 28.8758 163.888C28.9189 163.758 29.0484 163.629 29.1779 163.542C29.3074 163.456 29.48 163.456 29.6095 163.413C29.48 163.197 29.3505 162.722 29.6527 162.549C29.8253 162.463 30.0411 162.549 30.1706 162.722C30.257 162.852 30.3001 162.981 30.3433 163.111C30.4728 162.938 30.6454 162.765 30.8181 162.765C31.077 162.765 31.1634 162.938 31.2065 163.111Z" fill="#CFF0FF"/>
<path d="M85.332 108.424C85.7637 108.424 86.1953 108.424 86.6269 108.424C86.8859 108.424 87.2744 97.6332 87.3175 96.5973C87.6197 90.8136 88.6556 85.073 88.0944 79.246C87.965 77.908 87.7491 76.57 87.2744 75.3183C87.1017 74.8003 86.8427 74.3255 86.5406 73.8507C86.2385 73.4191 85.8068 72.7717 85.2889 72.5559C84.8573 72.3401 84.2098 72.5127 83.735 72.5127C82.8718 72.4695 82.0517 72.3401 81.1885 72.2969C79.4188 72.2106 77.606 72.3401 75.8363 72.599C71.5632 73.1601 67.3333 74.2392 63.2329 75.5772C59.2188 76.8721 57.5786 77.0448 57.4491 81.5336C57.1902 90.7272 57.147 99.9208 57.3197 109.071C66.6859 108.726 76.009 108.51 85.332 108.424Z" fill="#CFF0FF"/>
<path d="M96.2089 -12.6035L52.5286 63.4918L52.7444 82.1379C52.7875 82.1379 52.7444 110.625 52.7444 110.625C52.7444 110.625 53.4781 110.366 55.2478 111.1C55.5068 119.646 55.8089 78.0375 55.9384 77.9943C59.6072 76.6131 63.3192 75.3614 67.0743 74.3255C70.8294 73.2896 74.6709 72.4264 78.5987 72.2106C79.5051 72.1674 80.4115 72.1674 81.3179 72.1674C82.1811 72.2106 83.0012 72.3401 83.8645 72.3832C84.2961 72.3832 84.8572 72.2537 85.2457 72.4264C85.7204 72.599 86.1089 73.1602 86.411 73.5486C87.1016 74.3687 87.4901 75.4478 87.7491 76.4837C88.0944 77.8217 88.2239 79.2461 88.3102 80.6272C88.4828 83.7781 88.2239 86.9721 87.9649 90.123C87.8354 91.461 87.7059 92.799 87.6196 94.0939C87.4901 95.7772 87.4038 97.4606 87.3175 99.1439C86.7995 108.855 86.1089 118.61 85.4183 128.322C84.9435 135.098 84.4687 141.832 84.0803 148.608L138.638 164.146C139.501 164.405 141.27 163.801 142.177 163.672C157.629 161.557 173.081 159.442 188.533 157.284C193.929 156.55 199.367 155.773 204.762 155.039C209.64 154.392 212.057 151.198 215.337 147.572C221.553 140.666 226.818 132.767 229.926 123.962C232.386 117.056 233.508 109.762 234.199 102.467C236.357 79.9798 234.631 57.1037 229.149 35.2204C228.415 32.3285 227.811 28.3576 226.128 25.8542C224.531 23.5234 221.811 23.1781 219.222 22.4443C212.273 20.4589 205.323 18.4734 198.374 16.5311C184.433 12.5602 170.448 8.58922 156.507 4.61828C136.393 -1.16548 116.279 -6.86292 96.2089 -12.6035Z" fill="#CFF0FF"/>
<path d="M58.3987 83.3896L76.3111 83.0443V78.3396H58.9166L58.3987 83.3896Z" fill="#008FD6"/>
<path d="M50.4568 125.257H46.4858V158.061H50.4568V125.257Z" fill="#0062BA"/>
<path d="M41.1338 135.141H37.1628V168.851H41.1338V135.141Z" fill="#0062BA"/>
<path d="M88.9145 149.644H79.1166V79.0734L77.3901 64.2256L88.9145 79.0734V149.644Z" fill="#008FD6"/>
<path d="M111.834 162.506L87.6196 158.19V78.2102L111.834 79.9367V162.506Z" fill="#3F3161"/>
<path d="M114.726 82.5696H107.172V120.337H114.726V82.5696Z" fill="#008FD6"/>
<path d="M97.1155 118.524L109.848 117.833L109.374 129.703L97.6334 127.199L97.1155 118.524Z" fill="#008FD6"/>
<path d="M138.724 157.802C139.415 157.888 86.0227 149.169 86.0227 149.169L64.7868 151.284L54.9026 173.944L118.394 183.181C118.394 183.181 134.796 186.375 136.436 186.677C138.077 186.979 139.199 187.066 141.486 186.936C141.961 186.893 156.55 185.641 171.614 183.656C178.563 182.75 185.469 181.714 192.375 180.635C198.59 179.642 205.755 179.599 208.733 172.952C209.942 170.232 209.597 167.082 209.122 164.147C208.906 162.895 208.69 161.643 208.129 160.521C207.611 159.485 206.877 158.579 206.057 157.759C203.727 155.428 200.921 153.27 197.684 152.967C194.015 152.622 189.699 153.615 185.987 153.917C178.994 154.478 171.959 155.082 164.967 155.73C157.413 156.42 149.817 157.111 142.263 157.845C140.407 158.017 138.033 157.715 138.724 157.802Z" fill="#3F3161"/>
<path d="M101 40.2273L88.0945 41.2632V25.3363L101 26.9333V40.2273Z" fill="#008FD6"/>
<path d="M79.1167 149.428L74.7141 149.817V62.8875H79.1167V149.428Z" fill="#0062BA"/>
<path d="M60.5999 150.55L54.9025 148.565L54.6003 79.0735H60.5999V141.788L67.3332 146.666L60.5999 150.55Z" fill="#0062BA"/>
<path d="M95.6048 -8.24405C93.6193 -7.98507 98.9714 4.66151 101.173 10.5316C101.906 12.4739 106.827 18.1282 108.079 19.423C111.23 22.5739 112.87 26.588 114.726 30.6021C117.272 36.0406 135.789 67.247 139.717 67.4628C141.227 67.5491 185.771 67.4628 185.771 67.4628C194.058 66.5995 202.345 65.7363 210.633 64.8299C224.531 63.276 234.631 48.6008 233.854 35.0478C233.595 30.9042 232.473 26.847 231.135 22.876C229.322 17.6102 227.034 12.5171 224.013 7.85552C219.999 1.59698 213.352 -6.51755 205.539 -7.07866C201.223 -7.3808 196.821 -7.3808 192.461 -7.46712C179.944 -7.81242 167.427 -8.02824 154.91 -8.20089C142.177 -8.4167 129.444 -8.54618 116.711 -8.58935C109.805 -8.63251 102.511 -9.19362 95.6048 -8.24405Z" fill="#008FD6"/>
<path d="M54.9026 148.565L90.2094 161.384L118.438 154.262L106.007 150.68L78.5987 145.975L54.9026 148.565Z" fill="#6A6A6A"/>
<path d="M98.4966 158.881L92.7992 157.629V156.766L92.2812 156.55V77.7354L92.6697 59.6504L98.4966 63.4918V158.881Z" fill="#CFF0FF"/>
<path d="M54.9026 148.565V157.586L92.3244 167.038L92.4539 157.629L54.9026 148.565Z" fill="#6A6A6A"/>
<path d="M118.438 155.212H113.301V79.9366L118.308 78.3396L118.438 155.212Z" fill="#CFF0FF"/>
<path d="M96.0795 120.121C96.0795 120.121 98.5397 118.567 98.5397 119.085C98.5397 119.646 98.6692 119.948 99.0577 119.905C103.719 119.603 112.265 118.999 112.654 118.999C113.172 118.955 113.388 118.912 113.301 117.876C113.215 116.84 116.538 118.74 116.538 118.74L116.711 155.169L100.05 156.852L93.8782 156.981L96.0795 120.121Z" fill="#CFF0FF"/>
<path d="M56.845 116.107C56.845 116.107 60.6001 114.985 60.6001 115.416C60.6001 115.848 61.1181 115.848 61.1181 115.848L74.2826 115.028C74.2826 115.028 74.671 115.028 74.671 114.553C74.671 114.078 76.1386 114.941 76.1386 114.941L76.3975 144.335L58.3557 146.838L56.845 116.107Z" fill="#0062BA"/>
<path d="M57.2334 115.373C53.4351 118.74 49.6368 122.106 45.8385 125.473C43.5941 127.459 41.3496 129.444 39.1052 131.429C37.206 133.113 34.6594 135.53 32.415 138.076C31.8107 138.767 30.818 139.673 30.3864 140.839C30.2569 141.184 30.0411 141.745 30.9475 142.306C32.3287 143.17 33.8394 142.954 35.1342 141.788C36.4291 140.623 37.5945 139.371 38.8894 138.206C41.6086 135.746 44.2847 133.242 47.0039 130.782C51.1043 126.984 55.2479 123.229 59.3483 119.43C59.4778 119.301 59.6073 119.215 59.6936 119.085C59.6936 119.085 57.2334 115.373 57.2334 115.373Z" fill="#0062BA"/>
<path d="M138.983 59.8661C134.062 52.1401 101.863 1.20845 96.8997 -6.86292C93.5762 -12.3445 93.5762 0.345198 93.5762 0.345198C93.5762 0.345198 128.408 56.3268 133.242 63.7076C136.005 67.8943 138.379 67.4196 139.76 67.4196C141.098 67.4196 139.415 60.5567 138.983 59.8661Z" fill="#0062BA"/>
<path d="M95.6048 -8.24404C91.0296 -3.10771 53.6078 52.7444 49.3347 59.3483C49.0326 59.7799 48.9031 60.3842 48.9031 60.859V64.8299C48.9031 65.2615 49.1189 67.4628 49.8526 67.4628C51.2338 67.4628 52.7877 67.4628 52.7877 67.4628C59.1326 57.9239 93.8783 4.92049 96.0796 1.64015C96.0364 1.1222 100.871 -14.9774 95.6048 -8.24404Z" fill="#0062BA"/>
<path d="M118.438 154.262L92.0223 156.809L91.4181 159.701L92.3245 167.038L81.7497 168.506L75.0163 175.455L68.3262 177.57L71.1317 187.325L118.438 181.152V154.262Z" fill="#6A6A6A"/>
<path d="M71.1317 187.325L78.0377 177.311L38.3283 169.024L33.2783 168.635C33.2783 168.635 33.0625 168.765 33.0625 169.11C33.0625 169.542 33.0625 177.311 33.0625 177.311L71.1317 187.325Z" fill="#6A6A6A"/>
<path d="M81.5337 177.915L43.6371 167.513C43.6371 167.513 43.5508 159.183 43.5508 158.665C43.5508 158.233 43.8098 158.147 43.8098 158.147L84.2961 164.535L81.5337 177.915Z" fill="#6A6A6A"/>
<path d="M44.2846 158.061L54.9025 156.981L92.756 164.319L88.4829 167.038L82.3107 166.52C82.3107 166.52 44.112 158.233 43.8098 158.147C43.9393 158.06 44.2846 158.061 44.2846 158.061Z" fill="#CFF0FF"/>
<path d="M33.5805 168.463C33.7099 168.42 43.6373 167.038 43.6373 167.038L84.2963 176.577C84.2963 176.577 73.2899 178.002 72.1676 178.131C71.0454 178.261 69.9232 177.958 69.9232 177.958L39.5369 170.189L33.2783 168.592C33.2783 168.592 33.3646 168.506 33.5805 168.463Z" fill="#CFF0FF"/>
<path d="M176.75 103.201L148.867 112.87V82.9149L176.405 81.5769C176.405 81.5769 176.88 98.4102 176.75 103.201Z" fill="#3F3161"/>
<path d="M78.8145 84.3392L59.1324 84.6414L52.7875 85.6341L52.7444 82.0948L70.7431 55.4204L90.382 63.9666L78.8145 84.3392Z" fill="#0062BA"/>
<path d="M95.2594 51.4926C90.2094 51.4926 72.5992 51.4062 71.9949 51.4062C71.2611 51.4062 70.6137 52.1832 70.6137 52.1832L50.5 80.0661C50.5 80.0661 50.1116 80.6704 50.1116 81.5768C50.1116 82.2242 50.1116 83.9939 50.1116 84.9434C50.1116 85.2887 50.6295 85.5477 50.6295 85.5477C50.6295 85.5477 52.1834 85.6772 52.7876 85.6772C53.3919 85.6772 53.9099 84.7276 53.9099 84.7276L71.1317 59.6503L90.5547 84.5981C90.5547 84.5981 91.2885 85.7204 92.7129 85.6772C94.1372 85.634 117.574 84.9003 117.574 84.9003C117.574 84.9003 118.438 84.9003 118.438 83.9939C118.438 83.4327 118.438 81.9221 118.438 80.843C118.438 80.1524 118.135 79.2028 117.574 78.4691C113.647 73.4191 97.8492 53.0896 97.3744 52.4853C96.8133 51.8379 96.0795 51.4926 95.2594 51.4926Z" fill="#008FD6"/>
<path d="M168.765 125.602H149.083L148.263 105.92H158.406L172.391 106.87L168.765 125.602Z" fill="white"/>
<path d="M101 26.9332C101 26.9332 101 25.4225 101 25.0341C101 24.6456 100.827 24.473 100.525 24.5161C96.8996 24.6024 87.6629 24.7751 87.4902 24.7751C87.2744 24.7751 87.0586 24.9046 87.0586 25.3794C87.0586 25.5089 87.0586 25.6815 87.0586 25.8542C87.0586 26.4153 87.0586 27.1922 87.0586 27.1922V40.1841C87.0586 40.1841 87.0586 40.702 87.0586 41.2631C87.0586 41.6947 87.0586 42.0832 87.0586 42.3422C87.0586 42.8601 87.4902 42.9033 87.706 42.9033C87.8787 42.9033 97.8492 43.0328 100.439 42.9033C100.827 42.9033 101.043 42.3853 101.043 42.3853V40.2272L88.2671 40.3136L88.3966 27.0627L101 26.9332Z" fill="#0062BA"/>
<path d="M167.168 124.61L166.607 113.129C169.974 113.129 173.815 115.33 177.139 114.596C178.433 114.294 179.685 113.949 180.937 113.56C181.498 113.388 183.915 114.467 184.045 115.157C184.39 117.402 185.21 120.855 185.21 123.142C185.21 123.229 185.21 123.703 185.21 123.703C185.21 123.703 183.095 123.444 182.232 123.703C181.498 123.919 180.894 124.437 180.117 124.61C179.426 124.739 178.649 124.696 177.959 124.696C176.318 124.696 174.678 124.696 173.081 124.696C171.096 124.61 169.154 124.61 167.168 124.61Z" fill="#6A6A6A"/>
<path d="M169.671 112.783C169.153 111.704 169.844 112.05 169.887 110.97C170.103 108.251 169.369 105.532 169.456 102.813C169.542 100.741 170.75 98.4102 172.563 96.9858C173.815 95.9931 177.182 94.6119 178.433 94.9572C179.21 95.173 181.973 96.3384 182.447 96.9858C182.706 97.3311 182.965 97.6333 183.181 98.0217C184.174 100.05 182.491 102.554 182.965 104.712C183.138 105.575 183.354 106.309 183.354 107.215C183.354 107.733 183.268 108.683 183.268 108.683C183.268 108.683 183.311 110.366 183.483 111.186C183.527 111.445 184.001 114.985 184.044 115.2C184.044 115.2 183.311 115.157 182.922 114.941C173.513 117.315 170.146 113.776 169.671 112.783Z" fill="#0062BA"/>
<path d="M171.873 99.2735C170.923 100.223 169.844 101.086 168.679 101.82C168.636 101.863 168.592 101.863 168.549 101.863C168.463 101.863 168.377 101.777 168.377 101.777C168.377 101.777 167.557 101 167.082 100.482C166.78 100.137 166.434 99.6188 165.96 99.6619C165.787 99.6619 165.614 99.7483 165.442 99.8346C164.621 100.223 163.672 100.698 163.024 101.432C162.981 101.475 162.766 102.079 163.327 103.115C165.053 106.266 167.816 108.726 171.053 110.194C171.571 108.51 172.348 106.913 172.822 105.273C173.211 103.892 174.117 102.77 174.721 101.475C175.239 100.309 175.93 98.7555 175.757 97.4606C175.498 95.7342 174.074 97.1153 173.383 97.7628C172.866 98.1944 172.391 98.7555 171.873 99.2735Z" fill="#0062BA"/>
<path d="M161.859 96.1658C162.032 95.9931 162.204 95.8636 162.377 95.7341C162.636 95.5615 161.686 94.4824 161.988 94.4824C162.247 94.5256 164.578 96.0794 164.837 96.3384C165.398 96.9427 165.7 97.9786 165.83 98.7987C165.873 99.1008 165.916 99.4029 166.046 99.7051C166.089 99.7914 166.132 99.8777 166.132 99.9641C166.132 100.05 166.089 100.137 166.046 100.18C165.83 100.568 165.528 100.87 165.182 101.129C164.923 101.302 164.492 101.518 164.147 101.475C163.758 101.432 161.816 99.0576 161.6 98.6692C161.341 98.1512 161.212 97.4175 161.427 96.8564C161.47 96.5974 161.643 96.3816 161.859 96.1658Z" fill="white"/>
<path d="M159.96 90.8137C159.96 90.8137 158.449 91.8065 158.018 92.0654C157.111 92.5834 156.377 93.1445 155.471 93.7919C155.428 93.9646 159.787 100.655 161.255 102.338C163.068 100.439 162.938 100.266 165.053 98.3671C165.096 98.324 163.931 96.468 163.888 96.3817C163.888 96.2953 163.845 96.2522 163.801 96.1659C163.111 95.0868 162.42 93.9646 161.686 92.9287C161.427 92.5834 161.168 92.2381 160.909 91.8928C160.78 91.7201 159.96 90.8137 159.96 90.8137Z" fill="#EFEFEF"/>
<path d="M184.174 98.367C183.699 97.2448 183.311 96.5111 182.275 95.8205C181.153 95.0435 179.426 94.6119 178.045 94.4824C173.599 96.0794 172.391 95.173 170.794 97.6764C170.233 98.4102 168.549 101.82 168.549 101.82L170.319 103.158C170.319 103.158 170.319 102.942 170.837 101.993C170.923 101.82 171.053 101.647 171.182 101.561C171.614 101.216 172.132 101.388 172.607 101.475C173.168 101.561 173.772 101.691 174.333 101.777C175.455 101.993 176.621 102.252 177.743 102.554C178.131 102.683 178.52 102.77 178.865 102.899C178.995 102.942 179.124 102.985 179.167 103.072C179.34 103.331 178.951 104.367 178.908 104.669C178.779 105.187 178.606 105.661 178.434 106.179C180.117 107.345 183.268 108.683 183.268 108.683C183.268 108.683 184.908 104.539 184.778 101.906C184.692 100.827 184.606 99.4461 184.174 98.367Z" fill="#008FD6"/>
<path d="M159.571 94.7414L159.528 94.7846C159.312 95.0004 158.881 95.0004 158.751 95.3026C158.708 95.3457 158.795 95.432 158.795 95.432C158.881 95.4752 158.924 95.432 159.01 95.3457C159.097 95.2594 159.183 95.2162 159.269 95.2162C159.442 95.1731 159.615 95.0867 159.787 94.9573C159.96 94.8709 160.046 94.6983 160.176 94.612C160.348 94.4825 160.521 94.3961 160.694 94.2667C160.823 94.1803 160.909 94.094 160.996 94.0077C161.039 93.9214 161.212 93.7056 161.168 93.6624C161.125 93.5761 161.039 93.6192 160.953 93.6624C160.737 93.7487 160.65 93.9645 160.435 94.094C160.262 94.1803 160.089 94.1803 159.917 94.3098C159.787 94.3961 159.701 94.5688 159.571 94.7414Z" fill="#008FD6"/>
<path d="M160.305 96.0363C160.219 96.1226 159.917 96.2089 159.701 96.5111C159.658 96.5542 159.571 96.6406 159.615 96.7701C159.658 96.8132 159.701 96.8132 159.744 96.8132C159.83 96.8132 159.917 96.7701 160.003 96.6837C160.133 96.5542 160.262 96.4248 160.435 96.3384C160.564 96.2521 160.694 96.2089 160.78 96.1226C160.909 96.0363 160.996 95.9068 161.082 95.8205C161.341 95.6047 161.686 95.5615 161.988 95.3457C162.161 95.2162 162.032 95.1299 161.902 95.1299C161.73 95.1299 161.557 95.2162 161.384 95.3025C161.212 95.3889 161.039 95.4752 160.823 95.5615C160.65 95.6478 160.521 95.8636 160.305 96.0363Z" fill="#008FD6"/>
<path d="M160.737 97.7197C160.737 97.7197 160.737 97.7629 160.737 97.7197C160.65 97.806 160.607 97.8492 160.607 97.9355C160.564 98.1945 160.909 98.065 161.039 97.9787C161.125 97.8923 161.211 97.7629 161.341 97.6765C161.514 97.547 161.729 97.5039 161.945 97.3744C162.118 97.2449 162.247 97.1154 162.42 96.9859C162.636 96.8564 162.809 96.727 162.938 96.5543C163.154 96.3385 162.808 96.2522 162.636 96.3385C162.506 96.3817 162.42 96.468 162.334 96.5543C162.247 96.6406 162.118 96.727 162.032 96.8564C161.902 96.9859 161.816 97.0723 161.643 97.1586C161.514 97.2018 161.384 97.2449 161.255 97.3312C161.082 97.3744 160.909 97.547 160.737 97.7197Z" fill="#008FD6"/>
<path d="M162.032 98.7556C161.945 98.842 161.73 98.9283 161.6 99.1009C161.514 99.2304 161.514 99.4031 161.686 99.4462H161.73C161.945 99.3599 162.118 99.1873 162.248 99.0146C162.377 98.842 162.507 98.6693 162.722 98.583C162.938 98.4535 163.154 98.324 163.37 98.2377C163.586 98.1082 163.672 97.9355 163.845 97.7629C163.974 97.5902 163.801 97.4176 163.629 97.5039C163.542 97.5471 163.456 97.6334 163.413 97.6766C163.283 97.8492 163.068 97.9787 162.895 98.1082C162.636 98.2377 162.248 98.4967 162.032 98.7556Z" fill="#008FD6"/>
<path d="M158.665 93.1443C158.622 93.1875 158.622 93.2738 158.579 93.317C158.492 93.4465 158.32 93.4465 158.147 93.4896C157.931 93.576 157.629 93.7918 157.672 94.0508C157.672 94.1371 157.716 94.1802 157.802 94.1802C157.931 94.1802 158.104 93.8781 158.147 93.8349C158.233 93.7918 158.363 93.7918 158.579 93.7486C158.708 93.7486 158.795 93.6623 158.881 93.576C158.924 93.5328 158.967 93.4465 159.01 93.3602C159.054 93.317 159.097 93.2307 159.14 93.1875C159.313 93.058 159.615 93.0149 159.787 92.8854C159.96 92.7559 160.262 92.5832 160.305 92.3674C160.305 92.2811 160.262 92.1516 160.176 92.1516C160.133 92.1516 160.089 92.1948 160.089 92.1948C159.96 92.2811 159.83 92.3243 159.744 92.4537C159.658 92.5401 159.572 92.6696 159.442 92.7127C159.356 92.7559 159.226 92.7559 159.14 92.799C159.01 92.8422 158.881 92.9285 158.795 93.0149C158.751 93.058 158.708 93.1012 158.665 93.1443Z" fill="#008FD6"/>
<path d="M163.888 96.511C163.629 96.3815 163.283 96.1657 162.981 96.1226C162.809 96.0794 162.636 96.1657 162.55 96.2952C162.42 96.4679 162.506 96.7268 162.636 96.8995C162.765 97.0721 162.981 97.1585 163.154 97.2448C163.499 97.4606 163.801 97.7627 164.147 98.0217C164.492 98.2807 164.88 98.4965 165.269 98.4965C165.312 98.4965 165.183 97.8922 165.183 97.8491C165.139 97.6332 165.053 97.4174 164.924 97.2016C164.708 96.8563 164.233 96.6405 163.888 96.511Z" fill="white"/>
<path d="M157.241 94.2666C157.284 94.3529 157.413 94.4824 157.456 94.5687C157.456 94.5687 157.197 94.7846 157.111 94.8277C157.025 94.7846 156.938 94.5256 156.938 94.5256L157.241 94.2666Z" fill="#E02E49"/>
<path d="M158.018 95.6479C158.061 95.7343 158.147 95.8638 158.233 95.9501C158.233 95.9501 157.931 96.1659 157.802 96.1659C157.715 96.0796 157.629 95.8638 157.629 95.8638L158.018 95.6479Z" fill="#E02E49"/>
<path d="M158.924 96.9858C159.01 97.0722 159.183 97.288 159.183 97.288C159.097 97.3743 159.01 97.4606 158.881 97.547C158.794 97.5038 158.622 97.288 158.622 97.288C158.665 97.2017 158.924 96.9858 158.924 96.9858Z" fill="#E02E49"/>
<path d="M159.96 98.4102C160.003 98.4965 160.219 98.7123 160.176 98.7123C160.089 98.7986 159.917 98.9281 159.83 98.9713C159.744 98.9281 159.658 98.6691 159.658 98.6691L159.96 98.4102Z" fill="#E02E49"/>
<path d="M160.996 99.7483C161.082 99.8346 161.125 99.9209 161.212 99.9641L161.255 100.007V100.05C161.168 100.137 161.082 100.223 160.953 100.309C160.866 100.266 160.78 100.18 160.737 100.094V100.05V100.007C160.78 99.9209 160.996 99.7483 160.996 99.7483Z" fill="#E02E49"/>
<path d="M156.895 112.568C156.809 112.913 156.723 113.258 156.636 113.604L157.068 112.179L157.025 112.222C156.982 112.309 156.939 112.438 156.895 112.568Z" fill="#6A6A6A"/>
<path d="M165.442 122.236C165.96 118.999 165.916 115.546 165.355 112.309C165.312 112.136 165.312 112.006 165.183 111.877C165.053 111.747 164.881 111.661 164.708 111.618C163.413 111.23 162.075 111.143 160.78 111.359C159.528 111.532 158.492 111.92 157.241 111.618C157.068 112.05 157.284 112.093 157.413 112.438C157.586 112.913 157.586 113.603 157.629 114.121C157.672 114.51 157.888 116.452 158.018 117.445C158.32 119.603 158.622 121.502 158.708 122.409C158.795 123.444 158.665 123.79 158.751 124.826C160.564 124.653 162.377 124.524 164.147 124.351C164.319 124.351 164.492 124.308 164.665 124.265C165.053 124.092 165.183 123.617 165.269 123.186C165.355 122.84 165.398 122.538 165.442 122.236Z" fill="#008FD6"/>
<path d="M169.628 107.517C168.851 106.87 167.384 105.575 164.708 105.057C163.888 104.885 163.025 105.1 162.204 105.144C160.651 105.23 159.313 105.532 157.457 105.748C157.37 106.136 157.586 106.611 157.845 106.913C158.881 108.165 160.219 109.071 161.643 109.891C162.032 110.107 162.42 110.323 162.852 110.409C163.24 110.496 163.629 110.452 163.974 110.409C165.355 110.28 167.168 110.539 168.506 110.194C169.11 110.021 169.326 109.33 169.931 109.114C170.492 108.899 170.448 108.553 170.103 108.035C169.887 107.906 169.844 107.69 169.628 107.517Z" fill="#6A6A6A"/>
<path d="M173.685 118.61C173.513 117.358 173.038 116.193 172.261 115.2C172.175 115.071 172.347 114.294 172.347 114.078C172.347 113.646 172.347 113.215 172.304 112.783C172.218 112.006 171.916 111.273 171.786 110.539C171.7 110.021 171.743 109.632 171.182 109.417C170.794 109.244 170.319 109.33 169.887 109.373C168.118 109.589 166.952 110.237 164.19 110.237C164.103 110.237 163.024 110.107 162.981 110.193C162.722 110.366 163.931 110.625 163.931 111.057C163.931 112.136 164.147 113.301 164.276 114.38C164.924 119.819 164.708 120.941 164.319 122.236C164.449 124.825 165.053 126.164 165.053 124.264C165.053 123.142 165.744 124.092 165.787 124.178C166.046 124.653 167.902 125.387 168.635 125.257C170.146 125.041 171.7 124.739 173.211 124.437C173.383 124.394 173.168 122.84 173.211 122.624C173.34 121.761 173.729 120.984 173.772 120.078C173.815 119.56 173.772 119.085 173.685 118.61Z" fill="#3F3161"/>
<path d="M164.19 120.38C163.974 119.862 163.801 119.344 163.672 118.826C163.413 117.661 163.24 116.452 163.542 115.33C163.715 114.682 164.017 114.078 164.362 113.517C164.578 113.172 164.837 112.87 165.096 112.567C165.355 112.308 165.571 112.049 165.873 111.79C165.744 111.402 165.571 111.014 165.442 110.625C165.398 110.582 165.183 110.409 165.139 110.452C164.017 110.625 163.068 111.402 162.463 112.352C161.859 113.301 161.6 114.467 161.514 115.589C161.298 117.79 162.118 120.596 163.111 122.581C163.413 123.228 163.974 124.264 165.442 125.3C165.916 124.955 166.477 124.696 167.039 124.523C166.132 123.142 164.88 121.934 164.19 120.38Z" fill="#3F3161"/>
<path d="M157.931 113.258C157.543 113.776 157.197 114.337 156.938 114.898C155.6 117.876 156.982 120.596 159.269 122.754C160.262 123.703 160.348 125.214 160.348 125.214C160.348 125.214 158.363 124.523 157.715 124.869C157.672 124.869 159.01 124.653 158.19 124.178C156.291 123.056 154.435 120.207 154.435 117.574C154.435 114.121 156.334 112.395 157.327 111.445C157.931 110.841 157.759 110.453 157.931 110.323C158.492 110.021 159.053 109.762 159.615 109.546C159.701 109.503 159.744 109.503 159.83 109.503C159.96 109.546 160.046 109.676 160.132 109.805C160.262 109.978 160.435 110.107 160.478 110.323C160.521 110.582 160.305 110.841 160.089 111.014C159.312 111.661 158.535 112.395 157.931 113.258Z" fill="#3F3161"/>
<path d="M172.909 111.445C172.909 111.747 172.952 112.136 172.866 112.438C172.563 112.438 172.261 112.352 172.002 112.265C170.88 111.92 169.801 111.316 168.765 110.798C168.29 110.539 167.816 110.323 167.298 110.107C167.039 110.021 166.952 110.021 166.995 109.805C167.125 109.115 167.643 108.553 168.204 108.165C168.42 108.036 168.679 107.949 168.895 107.906C169.672 107.777 170.405 107.863 171.139 108.208C171.484 108.381 171.786 108.64 172.089 108.899C172.304 109.071 172.866 109.676 172.866 109.676C172.866 109.676 172.952 110.927 172.909 111.445Z" fill="white"/>
<path d="M155.169 112.611C155.859 113.085 157.672 114.208 158.492 114.467C158.147 115.114 157.586 115.546 157.068 116.02C156.939 116.107 156.852 116.236 156.809 116.366C156.723 116.668 157.111 116.884 157.327 117.056C157.456 117.143 157.845 117.488 158.018 117.402C160.909 115.33 162.895 113.776 164.19 110.193C162.981 108.078 157.586 105.877 157.413 105.748C155.083 105.618 154.435 107.129 153.788 109.287C153.615 109.848 153.486 110.409 153.313 110.97C153.097 111.488 152.709 111.963 152.406 112.395C152.32 112.524 152.191 112.697 152.191 112.913C152.191 112.999 152.234 113.085 152.277 113.172C152.406 113.474 152.709 113.862 153.011 113.819C153.313 113.776 153.529 113.387 153.572 113.301C154.435 112.179 154.953 112.481 155.169 112.611Z" fill="#0062BA"/>
<path d="M176.664 84.2097C175.283 83.8213 173.47 84.0371 172.477 85.073C172.434 85.1161 171.959 85.6773 171.916 85.6341C171.312 85.3751 170.751 85.8931 170.448 86.3679C170.103 86.929 169.974 87.749 170.017 88.4396C170.017 89.1302 170.233 89.8208 170.664 90.3388C171.096 90.8999 171.7 91.2452 172.304 91.5473C172.952 91.8495 173.729 91.8926 174.419 92.1084C174.765 92.1948 175.067 92.3674 175.412 92.4106C175.671 92.4538 175.887 92.4537 176.146 92.4537C176.362 92.4969 176.577 92.5401 176.793 92.5832C177.095 92.6696 177.527 93.058 177.829 92.8854C178.347 92.5401 179.21 90.2525 179.34 89.3892C179.34 89.3461 179.34 89.2597 179.383 89.2166C179.858 86.5405 178.477 84.7708 176.664 84.2097Z" fill="#E02E49"/>
<path d="M181.843 85.5478C181.627 84.9867 181.412 84.4256 180.98 83.994C180.376 83.3466 179.297 83.1739 178.477 83.5624C176.707 84.4688 177.398 86.6701 178.477 87.9218C180.289 90.123 184.045 89.0008 184.045 89.0008C184.045 89.0008 182.922 88.4397 181.843 85.5478Z" fill="#E02E49"/>
<path d="M176.664 90.1662C176.664 89.8641 176.621 89.5188 176.405 89.303C176.232 89.1303 175.93 89.0872 175.714 89.1735C175.498 89.2598 175.326 89.4756 175.239 89.7346C175.196 89.9073 175.196 90.0368 175.153 90.2094C174.98 90.5979 174.635 90.4252 174.376 90.2957C173.513 89.8641 172.909 89.1303 172.391 88.3966C172.304 88.2239 172.175 88.0944 172.088 87.9218C172.002 87.8355 171.916 87.5333 171.786 87.4902C171.571 87.3607 171.268 87.7923 171.139 87.965C170.794 88.4397 170.621 89.044 170.707 89.6483C170.75 89.9504 170.794 90.2526 170.837 90.5547C170.88 90.8568 170.75 91.1158 170.621 91.3748C170.578 91.5043 170.535 91.6338 170.491 91.7201C170.491 92.1085 170.837 92.238 171.053 92.4538C171.312 92.6697 171.441 93.015 171.571 93.3171C171.7 93.7056 171.873 94.094 172.218 94.353C172.52 94.612 172.952 94.6983 173.34 94.7415C173.772 94.7846 174.247 94.8709 174.419 95.3026C174.592 95.6047 174.592 96.2521 174.635 96.7701C174.635 96.8132 174.635 96.8564 174.678 96.8564C174.678 96.8996 174.721 96.8996 174.765 96.8996C176.362 97.3744 177.613 96.2953 178.304 95.0436C178.347 94.9573 178.433 94.8278 178.304 94.5256C178.045 93.9214 177.829 93.2308 177.743 92.8855C177.182 92.8855 176.707 90.7705 176.664 90.1662Z" fill="white"/>
<path d="M192.85 79.3324C192.85 79.3324 191.684 79.3324 189.699 79.2892V77.7786H187.929V79.2461C179.599 79.1598 162.463 79.0303 150.68 79.4187C149.86 79.4619 149.04 79.4619 148.263 79.5051C147.615 79.5482 147.529 79.8072 147.529 81.1884C147.529 81.8358 147.529 128.149 147.529 128.149C147.529 128.279 147.529 128.408 147.529 128.451C147.529 129.142 148.176 129.271 148.565 129.271C152.752 128.926 185.339 128.408 188.49 128.02C189.397 127.89 189.699 127.804 189.699 126.854C189.699 126.034 189.699 123.919 189.699 123.919V82.5264C191.166 82.5696 192.979 82.6128 193.454 81.8358C193.626 81.5769 193.67 81.2316 193.713 80.9294C193.799 80.0662 193.885 79.2461 193.929 78.3828C193.238 78.2102 192.85 79.3324 192.85 79.3324ZM149.903 83.2602C157.802 83.1307 182.922 82.6559 187.886 82.5264V123.315L149.903 124.61V83.2602Z" fill="#008FD6"/>
<path d="M187.454 144.421C185.124 144.033 182.62 144.637 180.333 145.457C178.822 146.018 177.225 146.795 176.621 148.263C176.232 149.256 176.362 150.421 176.016 151.457C175.585 152.752 174.635 153.313 173.599 154.133C172.477 155.039 171.441 156.032 170.448 157.068C168.463 159.183 166.693 161.557 165.355 164.103C164.492 165.7 163.758 167.427 163.672 169.197C163.586 171.009 164.147 172.822 164.708 174.549C165.614 177.311 166.521 180.117 168.161 182.491C169.758 184.821 172.002 186.634 174.376 188.188C177.786 190.476 181.498 192.375 185.383 193.799C195.698 197.554 206.877 197.813 217.798 197.943C219.999 197.986 222.2 197.986 224.315 197.468C231.264 195.828 235.969 188.533 235.883 181.412C235.839 179.297 235.451 177.182 234.631 175.239C233.379 172.175 231.135 169.671 228.977 167.168C226.991 164.924 225.006 162.679 223.063 160.435C218.704 155.514 213.136 151.63 207.007 149.256C204.072 148.133 201.007 147.356 197.9 146.968C196.389 146.795 194.878 146.795 193.411 146.58C191.771 146.321 190.433 145.285 188.922 144.724C188.404 144.637 187.929 144.508 187.454 144.421Z" fill="#3F3161"/>
<path d="M217.495 -8.63255C213.826 -8.28725 210.373 -10.1864 206.748 -10.7907C201.957 -11.6108 196.777 -10.1001 193.195 -6.77656C192.288 -5.95648 191.468 -5.00691 190.26 -4.70477C189.396 -4.48896 188.533 -4.66161 187.67 -4.70477C182.793 -5.00691 177.915 -1.51075 176.707 3.23711C176.448 4.14352 176.318 5.13626 175.757 5.91318C175.11 6.73327 174.117 7.07856 173.167 7.46703C170.491 8.45976 167.858 9.75463 165.787 11.7833C163.715 13.8119 162.377 16.6606 162.679 19.5093C163.024 22.6602 165.355 25.4226 165.312 28.5734C165.269 32.0696 162.463 34.832 160.089 37.4217C157.802 39.9251 155.255 43.1192 156.809 46.7448C156.938 47.0469 157.068 47.3491 157.068 47.6512C157.025 48.0828 156.679 48.4281 156.377 48.7734C153.442 51.7516 152.104 56.2405 153.011 60.341C153.917 64.4414 157.025 67.9375 160.952 69.4051C162.549 70.0093 164.319 70.2683 165.7 71.3042C166.434 71.8653 166.693 72.5991 167.168 73.3328C167.772 74.2392 168.29 75.1457 168.851 76.0952C170.06 78.0807 171.916 79.5914 174.031 80.5841C176.923 81.9222 180.289 82.9149 183.44 82.7422C183.699 86.0657 185.21 88.0944 186.116 89.1303C187.368 90.5546 189.526 91.3316 191.382 91.6337C192.245 91.7632 193.108 91.7632 193.929 91.9358C195.741 92.3243 196.777 93.9213 197.425 95.5183C198.245 97.5038 199.626 99.1871 201.525 100.223C203.683 101.388 206.489 101.734 208.776 100.87C210.978 100.05 213.611 99.7051 215.769 101.043C218.358 102.64 218.661 106.266 218.661 109.33C218.661 113.258 218.661 117.186 218.617 121.114C218.617 123.531 218.315 126.984 221.25 127.761C225.135 128.753 227.164 124.48 227.293 121.416C227.811 110.323 227.941 99.1871 227.854 88.1375C227.725 69.2324 226.3 50.3704 225.869 31.4653C225.653 22.1422 225.696 12.8192 225.998 3.49608C226.085 1.2948 226.171 -0.949642 226.257 -3.15092C226.343 -4.87742 227.293 -8.71887 226.559 -10.2727C225.135 -13.6394 220.43 -8.89152 217.495 -8.63255Z" fill="#3F3161"/>
<path d="M181.757 54.5571C177.57 57.5785 177.7 65.6067 181.671 68.7144C183.483 70.1388 185.9 70.4841 188.188 70.6999C188.102 72.2537 188.059 73.8507 188.318 75.4046C188.577 76.9584 189.181 78.4691 190.303 79.5913C191.425 80.7135 193.065 81.361 194.576 81.0157C195.526 80.7999 196.346 80.2819 197.295 80.1524C197.597 80.1093 197.9 80.1093 198.115 80.2819C198.288 80.4114 198.374 80.5841 198.504 80.7567C198.935 81.5336 199.41 82.3105 199.712 83.1306C200.403 85.0298 200.748 88.008 202.993 88.7417C203.64 88.9576 204.331 88.9144 204.978 89.087C207.568 89.6913 208.561 92.799 209.812 95.1729C210.244 95.993 210.848 96.8563 211.755 97.0289C214.474 97.6332 216.157 92.2811 214.042 90.943C213.352 90.5114 212.532 90.3819 211.755 90.1229C209.251 89.3029 207.18 87.2311 206.359 84.7276C205.928 83.3464 205.841 81.8358 205.237 80.4977C204.331 78.4691 202.173 77.0016 199.928 77.0016C198.892 77.0016 197.77 77.2174 196.907 76.6994C196.087 76.2246 195.655 75.2319 195.439 74.3255C194.792 71.8652 194.921 69.1892 194.015 66.7721C193.799 66.1678 193.497 65.5635 193.022 65.0888C191.123 63.2328 187.843 64.8298 185.339 64.0529C183.57 63.4917 182.361 61.7652 181.886 59.9524C181.412 58.1396 181.584 56.4131 181.757 54.5571Z" fill="#0062BA"/>
<path d="M165.873 64.6141C166.132 64.053 166.434 63.3192 166.089 62.7149C165.787 62.2401 165.096 61.938 164.621 61.6359C163.413 60.8589 162.334 60.1683 161.686 58.8303C161.082 57.5354 160.996 56.0247 161.427 54.6867C161.773 53.7371 162.334 52.8739 162.463 51.8812C162.593 50.8021 162.161 49.7662 161.945 48.7303C161.471 46.529 161.73 44.1119 162.981 42.2559C164.708 39.7094 168.118 38.1555 168.118 38.1555C168.118 38.1555 166.477 40.4863 165.916 41.7812C165.053 43.7235 164.967 45.7953 165.355 47.8239C165.528 48.644 166.434 48.8166 166.995 48.2124C167.427 47.7376 167.513 47.0901 167.6 46.4859C167.945 44.3709 168.636 42.1265 170.276 40.8316C171.312 40.0115 172.693 39.623 174.031 39.6662C174.247 39.6662 174.419 39.7094 174.635 39.623C174.808 39.5367 174.98 39.4072 175.11 39.2777C175.585 38.7598 176.016 38.1987 176.534 37.8102C177.052 37.3786 177.786 37.0765 178.433 37.2491C178.649 37.2923 180.894 38.1987 179.081 40.0978C177.959 41.22 175.239 42.1265 173.686 44.1983C171.959 46.4427 170.276 51.5359 173.945 56.629C172.477 57.2333 171.269 58.4418 170.535 59.823C169.801 61.2474 169.456 62.8444 169.499 64.4414C169.499 65.65 169.715 66.8585 170.276 67.8944C170.837 68.9303 171.83 69.7935 172.995 70.0094C173.686 70.1388 174.419 70.0525 175.153 70.182C175.542 70.2683 176.448 70.4841 176.319 71.52C176.06 73.1602 173.945 73.5487 172.304 73.635C168.118 73.7213 163.456 69.8367 165.873 64.6141Z" fill="#0062BA"/>
<path d="M176.146 141.745C175.412 141.529 172.391 140.321 170.664 143.04C170.362 143.515 169.974 144.982 169.413 145.025C169.197 145.069 168.981 144.982 168.765 144.896C167.341 144.421 165.701 144.896 164.708 145.975C163.715 147.054 163.801 148.565 162.42 149.342C161.428 149.946 160.348 149.514 159.313 149.773C157.845 150.075 157.457 150.378 156.766 151.111C155.557 152.406 155.816 153.787 156.205 155.471C156.248 155.6 156.248 155.73 156.205 155.859C156.119 156.118 155.86 156.248 155.601 156.334C154.651 156.722 153.917 157.543 153.615 158.535C153.313 159.485 153.399 160.607 153.917 161.47C154.867 163.154 153.011 163.456 151.802 164.06C149.946 165.053 149.04 167.556 149.86 169.499C150.162 170.189 150.637 170.837 150.68 171.614C150.723 172.347 150.335 173.038 149.817 173.556C149.342 174.074 148.738 174.549 148.22 175.067C146.709 176.707 146.234 179.21 147.054 181.282C147.659 182.749 148.91 183.915 150.378 184.519C151.759 185.08 153.14 185.382 154.133 186.634C154.78 187.54 154.953 188.663 155.428 189.699C156.464 191.9 158.967 193.065 161.341 193.195C163.715 193.324 166.132 192.547 168.377 191.684C170.146 191.037 172.089 190.303 173.901 190.864C174.937 191.166 175.801 191.9 176.707 192.547C178.822 194.144 181.196 195.439 183.699 196.346C185.037 196.864 186.505 197.252 187.886 196.907C189.008 196.605 189.915 195.871 190.994 195.396C192.634 194.662 194.404 194.878 196.13 194.533C198.159 194.144 200.101 193.626 202 192.893C203.511 192.288 205.065 191.511 206.101 190.26C207.223 188.922 207.698 187.195 207.913 185.469C208.129 183.958 208.129 182.361 207.654 180.893C207.007 178.908 204.849 178.002 203.511 176.405C202.691 175.412 200.231 174.462 197.252 175.887C197.857 175.066 198.202 172.952 197.77 172.002C195.439 172.865 194.792 174.29 194.274 174.937C193.842 175.498 193.066 175.93 192.375 176.146C191.857 176.275 191.253 176.318 190.778 176.059C188.62 174.937 189.138 172.52 189.44 170.534C189.699 168.851 189.397 167.081 188.275 165.787C187.498 164.88 185.814 165.053 185.383 164.621C184.563 163.801 184.951 161.902 185.296 160.952C185.728 159.83 186.462 158.837 187.282 157.931C190.346 154.392 196.432 149.687 201.439 149.989C203.381 150.119 205.194 150.723 206.921 151.586C207.698 151.975 208.302 152.363 209.122 152.406C209.942 152.493 210.633 152.363 211.41 152.708C212.186 153.054 212.791 153.701 213.438 154.219C214.474 155.039 215.683 155.643 216.978 155.902C218.402 156.205 220.085 156.248 220.905 157.456C221.51 158.319 221.251 159.226 221.423 160.175C221.639 161.255 221.855 162.334 222.071 163.413C222.545 165.571 223.711 167.513 225.308 168.981C226.128 169.714 227.164 170.362 228.286 170.405C229.408 170.448 230.617 169.758 230.833 168.678C231.221 166.909 229.192 165.657 228.372 164.017C226.905 160.952 229.581 157.802 228.2 154.996C227.811 154.219 227.207 153.572 226.689 152.838C223.279 147.874 226.473 140.278 222.761 135.487C220.948 133.113 217.582 132.12 214.733 133.069C211.928 134.019 209.769 138.681 206.834 138.81C203.597 138.94 200.489 135.702 197.554 137.127C195.353 138.206 194.101 141.141 191.684 141.443C189.31 141.702 187.066 139.716 184.606 139.371C183.009 139.155 180.333 139.328 178.347 142.911C177.743 142.522 176.88 142.004 176.146 141.745Z" fill="#0062BA"/>
<path d="M164.233 154.694C164.276 154.651 164.276 154.608 164.319 154.521C164.276 154.521 164.276 154.521 164.233 154.478C164.19 154.564 164.19 154.651 164.233 154.694Z" stroke="#0062B8" stroke-miterlimit="10"/>
<path d="M166.261 152.795C165.83 153.011 165.441 153.356 165.096 153.658C164.794 153.917 164.535 154.219 164.319 154.521C164.751 154.651 165.096 154.823 165.571 154.694C166.046 154.564 166.391 154.219 166.736 153.874C167.125 153.485 167.513 153.097 167.686 152.579C167.211 152.45 166.693 152.579 166.261 152.795Z" fill="#008FD6"/>
<path d="M167.858 182.275C167.988 182.275 168.117 182.275 168.247 182.275C169.11 182.188 169.714 181.671 170.276 181.109C170.448 180.894 170.621 180.678 170.621 180.376C170.621 180.117 170.448 179.815 170.189 179.771C169.887 179.728 169.585 179.987 169.369 180.16C168.549 180.807 167.643 181.325 166.693 181.757C166.995 182.059 167.427 182.232 167.858 182.275Z" fill="#008FD6"/>
<path d="M174.765 145.069C174.721 145.069 174.678 145.069 174.678 145.069C174.333 145.155 174.117 145.5 174.29 145.802C174.376 145.975 174.549 146.105 174.678 146.191C174.462 146.277 174.203 146.407 174.117 146.623C174.031 146.795 174.031 147.011 174.074 147.184C174.16 147.356 174.29 147.443 174.462 147.486C174.721 147.572 174.98 147.572 175.196 147.529C175.455 147.443 175.671 147.313 175.93 147.313C176.146 147.313 176.275 147.399 176.491 147.486C176.966 147.702 177.57 147.443 177.139 147.054C177.009 146.925 176.836 146.838 176.75 146.709C176.75 146.752 177.009 146.709 177.052 146.709C177.139 146.709 177.268 146.709 177.354 146.709C177.527 146.709 177.7 146.622 177.786 146.493C177.872 146.407 177.915 146.277 177.915 146.148C177.915 145.975 177.743 145.802 177.57 145.716C177.354 145.587 177.139 145.63 176.923 145.673C176.88 145.673 176.75 145.673 176.75 145.673C176.923 145.5 177.052 145.284 177.052 145.069C177.052 144.81 176.836 144.637 176.577 144.594C176.318 144.551 176.016 144.723 175.844 144.896C175.714 145.069 175.628 145.241 175.628 145.457C175.455 145.371 175.326 145.241 175.153 145.198C175.067 145.069 174.894 145.025 174.765 145.069Z" fill="#CFF0FF"/>
<path d="M158.147 171.355C157.974 171.57 157.845 171.829 157.802 172.132C157.759 171.829 157.586 171.527 157.37 171.355C156.939 171.052 156.205 171.139 155.989 171.7C155.903 171.959 155.946 172.218 156.032 172.434C156.118 172.606 156.248 172.736 156.248 172.952C156.248 173.167 156.118 173.383 155.989 173.556C155.816 173.772 155.644 173.944 155.514 174.203C155.385 174.419 155.385 174.764 155.6 174.937C155.773 175.11 156.075 175.067 156.334 174.98C156.55 174.894 156.766 174.721 157.025 174.678C157.068 174.678 157.111 174.678 157.154 174.678C157.197 174.678 157.241 174.721 157.241 174.764C157.5 175.153 157.456 175.671 157.802 175.973C158.104 176.232 158.579 176.189 158.881 175.973C159.269 175.671 159.14 175.196 158.881 174.851C158.794 174.721 158.708 174.592 158.622 174.462C158.881 174.505 159.183 174.462 159.442 174.419C159.658 174.376 159.83 174.333 160.003 174.203C160.176 174.074 160.262 173.858 160.262 173.685C160.219 173.426 160.003 173.254 159.787 173.211C159.615 173.167 159.399 173.124 159.312 172.995C159.226 172.865 159.269 172.65 159.356 172.477C159.442 172.304 159.571 172.175 159.615 172.002C159.701 171.7 159.485 171.355 159.183 171.225C158.881 171.096 158.536 171.182 158.277 171.398C158.19 171.311 158.147 171.355 158.147 171.355Z" fill="#CFF0FF"/>
<path d="M166.521 162.852C166.434 162.852 166.348 162.895 166.305 162.938C166.003 163.111 165.873 163.499 165.959 163.844C166.003 164.017 166.132 164.146 166.132 164.319C166.132 164.88 165.398 164.621 165.269 165.096C165.053 165.873 166.046 166.089 166.434 165.787C166.477 165.916 166.477 166.046 166.564 166.175C166.65 166.305 166.736 166.391 166.909 166.391C167.082 166.391 167.254 166.261 167.341 166.089C167.427 165.916 167.427 165.528 167.427 165.528C167.427 165.528 168.074 165.873 168.506 165.657C168.679 165.571 168.808 165.269 168.679 165.01C168.592 164.794 168.333 164.708 168.29 164.535C168.247 164.405 168.463 164.233 168.592 164.06C168.679 163.931 168.722 163.801 168.722 163.672C168.722 163.542 168.592 163.197 168.074 163.24C167.772 163.283 167.556 163.499 167.298 163.715C167.298 163.499 167.297 163.283 167.168 163.111C167.082 162.895 166.78 162.808 166.521 162.852Z" fill="#CFF0FF"/>
<path d="M164.06 155.6C164.06 155.73 164.017 155.859 163.931 155.946C163.888 155.989 163.801 156.032 163.758 156.032L163.586 156.075C163.715 156.291 163.801 156.464 163.758 156.723C163.715 156.895 163.672 157.068 163.499 157.154C163.327 157.284 163.024 157.241 162.852 157.111C162.679 156.982 162.55 156.723 162.506 156.507C162.42 156.593 162.334 156.723 162.204 156.809C162.075 156.895 161.945 156.938 161.816 156.938C161.686 156.938 161.557 156.895 161.471 156.809C161.341 156.723 161.255 156.593 161.212 156.464C161.168 156.334 161.168 156.162 161.212 156.032C161.298 155.859 161.471 155.773 161.6 155.687C161.557 155.687 161.427 155.471 161.384 155.428C161.341 155.341 161.298 155.212 161.298 155.126C161.298 154.91 161.384 154.694 161.6 154.608C161.73 154.565 161.859 154.565 161.988 154.608C162.075 154.651 162.161 154.737 162.247 154.78C162.291 154.78 162.334 154.78 162.334 154.78C162.42 154.78 162.463 154.651 162.506 154.565C162.55 154.392 162.636 154.219 162.765 154.09C162.895 153.96 163.111 153.917 163.283 154.003C163.413 154.047 163.456 154.176 163.499 154.306C163.629 154.651 163.499 154.996 163.37 155.298C163.413 155.212 163.586 155.255 163.672 155.255C163.801 155.255 163.888 155.341 163.931 155.428C164.06 155.471 164.06 155.514 164.06 155.6Z" fill="#CFF0FF"/>
<path d="M177.829 172.908C177.699 172.865 177.57 172.779 177.484 172.649C177.441 172.563 177.441 172.477 177.441 172.434V172.261C177.182 172.347 176.966 172.347 176.707 172.218C176.534 172.132 176.405 172.002 176.318 171.829C176.232 171.57 176.361 171.311 176.577 171.139C176.793 170.966 177.052 170.966 177.311 170.966C177.225 170.837 177.138 170.707 177.095 170.535C177.052 170.362 177.052 170.232 177.095 170.06C177.138 169.93 177.225 169.801 177.354 169.758C177.484 169.671 177.656 169.585 177.786 169.585C177.958 169.585 178.131 169.628 178.217 169.758C178.347 169.887 178.433 170.103 178.433 170.276C178.433 170.232 178.692 170.146 178.735 170.103C178.865 170.06 178.994 170.06 179.124 170.103C179.383 170.146 179.555 170.362 179.599 170.621C179.599 170.794 179.555 170.923 179.469 171.052C179.383 171.182 179.167 171.182 179.21 171.355C179.21 171.527 179.426 171.657 179.469 171.786C179.555 172.002 179.383 172.218 179.167 172.304C178.951 172.391 178.735 172.347 178.52 172.304C178.433 172.304 178.347 172.261 178.261 172.261C178.304 172.261 178.217 172.606 178.217 172.649C178.174 172.779 178.088 172.865 177.958 172.908C177.958 172.952 177.915 172.952 177.829 172.908Z" fill="#CFF0FF"/>
<path d="M102.252 161.039C102.554 160.737 102.899 160.521 103.288 160.348C103.719 160.176 104.237 160.046 104.324 159.571C104.367 159.399 104.324 159.226 104.324 159.053C104.151 157.37 105.877 156.291 107.345 157.111C107.992 157.5 108.726 158.147 109.33 157.672C109.848 157.241 109.503 156.42 109.244 155.816C108.51 154.047 109.071 151.845 110.496 150.637C111.186 150.032 112.006 149.601 112.956 149.687C113.603 149.73 114.251 149.946 114.898 149.989C115.157 148.824 115.157 147.615 115.373 146.45C115.503 145.846 115.675 145.198 116.064 144.68C116.409 144.292 116.841 143.99 117.272 143.774C117.79 143.515 118.783 142.911 119.387 143.083C119.991 143.256 120.553 144.249 120.855 144.767C121.416 144.249 121.891 143.947 122.624 143.86C124.567 143.644 125.43 145.5 124.955 146.838C124.869 147.141 124.739 147.658 125.387 147.788C126.509 148.047 127.631 148.435 128.063 149.471C128.365 150.119 128.494 151.716 127.545 153.226C129.228 152.061 130.091 152.45 131.43 152.493C131.861 154.219 130.35 156.377 130.35 156.377C130.35 156.377 132.509 156.593 133.544 157.931C134.796 159.571 133.717 161.773 133.07 162.808C134.365 163.37 134.969 164.449 135.098 165.01C135.314 165.959 135.185 166.952 134.839 167.858C134.106 169.887 132.422 171.57 130.437 172.304C130.005 172.477 129.53 172.65 129.401 173.081C129.185 173.685 129.876 174.203 130.394 174.592C131.732 175.541 132.681 177.095 132.768 178.735C132.854 180.376 131.947 182.059 130.48 182.75C129.703 183.138 128.797 183.181 127.977 183.526C127.804 183.613 127.631 183.699 127.502 183.829C127.329 184.044 127.329 184.303 127.286 184.519C127.2 185.339 127.07 186.202 126.941 187.023C126.811 187.713 126.638 188.404 126.164 188.922C125.646 189.44 124.912 189.655 124.178 189.742C123.185 189.828 122.279 189.655 121.33 189.353C120.596 189.094 119.862 188.533 119.128 188.447C118.567 188.361 117.963 188.62 117.488 188.965C117.013 189.31 116.625 189.742 116.107 190.087C115.373 190.562 114.51 190.778 113.647 190.605C112.827 190.432 112.05 189.828 111.747 189.051C111.532 188.533 111.488 187.929 111.273 187.411C111.23 187.325 111.143 187.195 111.057 187.152C110.971 187.066 110.841 187.066 110.712 187.023C110.323 186.979 109.891 187.066 109.503 186.936C109.158 186.85 108.812 186.591 108.553 186.332C107.647 185.382 107.302 184.044 107.474 182.793C107.561 182.102 107.647 181.886 106.913 181.714C106.352 181.584 105.705 181.368 105.273 180.937C104.712 180.332 104.496 179.21 104.583 178.39C104.669 177.743 104.841 176.966 105.187 176.361C105.316 176.103 106.093 174.894 106.482 174.98C105.705 174.808 104.971 174.635 104.28 174.203C103.633 173.815 103.072 173.167 102.942 172.391C102.77 171.441 103.288 170.535 103.849 169.758C104.108 169.412 104.367 169.067 104.367 168.635C104.367 168.031 103.762 167.6 103.244 167.297C102.338 166.736 101.432 166.046 101.13 165.053C100.957 164.492 101.043 163.888 101.216 163.283C101.302 162.377 101.691 161.6 102.252 161.039Z" fill="#0062BA"/>
<path d="M186.505 162.334C186.375 161.902 186.289 161.298 186.807 161.168C187.023 161.125 187.239 161.168 187.411 161.255C187.886 161.47 188.49 161.988 188.706 162.463C189.008 163.111 189.267 163.801 189.44 164.492C188.836 164.276 188.231 164.06 187.713 163.715C187.239 163.413 186.764 162.981 186.505 162.334C186.505 162.334 186.505 162.377 186.505 162.334Z" fill="#0062BA"/>
<path d="M156.42 167.772C156.507 167.341 156.723 166.736 157.284 166.909C157.5 166.952 157.629 167.125 157.758 167.297C158.061 167.729 158.32 168.463 158.276 168.981C158.233 169.714 158.104 170.405 157.888 171.096C157.5 170.621 157.068 170.146 156.766 169.585C156.464 169.024 156.291 168.376 156.42 167.772C156.42 167.815 156.42 167.815 156.42 167.772Z" fill="#008FD6"/>
<path d="M191.598 172.132C192.073 171.268 192.807 170.578 193.583 169.973C193.886 170.966 193.54 172.088 192.979 172.952C192.72 173.34 191.598 174.98 191.08 174.764C190.389 174.419 191.339 172.52 191.598 172.132Z" fill="#0062BA"/>
<path d="M123.919 148.694C122.667 146.968 120.509 147.831 120.509 147.831C120.509 147.831 122.063 144.766 119.042 142.436C118.265 141.875 115.546 140.925 113.905 143.256C113.301 144.119 113.172 145.284 113.301 146.363C113.646 148.651 112.697 147.529 111.359 147.399C111.316 147.399 111.273 147.399 111.229 147.399C110.021 147.313 108.942 148.306 108.553 149.342C108.079 150.593 108.338 152.018 108.726 153.313C108.769 153.442 108.812 153.528 108.769 153.658C108.726 153.874 108.51 154.046 108.294 154.133C107.863 154.392 107.474 154.694 107.215 155.169C106.913 155.73 107.043 156.679 107.388 157.197C108.035 158.104 108.381 158.406 108.64 158.924C108.424 158.794 108.165 158.665 107.906 158.622C107.215 158.449 105.877 158.319 105.273 159.701C105.1 160.089 105.144 160.564 105.23 160.996C105.446 161.945 106.136 162.808 106.956 163.326C107.733 163.801 108.855 163.715 109.287 164.664C109.546 165.225 109.546 165.83 109.503 166.434C109.46 167.038 109.46 167.643 109.632 168.204C110.021 169.326 111.273 169.887 112.395 170.319C113.517 170.707 114.769 171.139 115.373 172.175C115.718 172.779 115.805 173.513 115.891 174.246C116.625 172.908 117.186 171.441 116.97 169.93C116.711 168.463 115.373 167.038 113.905 167.211C113.992 166.261 113.905 165.571 113.603 164.88C113.301 164.19 112.654 163.801 112.049 163.585C111.704 162.118 112.049 161.125 112.87 160.132C113.905 158.924 114.898 159.053 116.279 159.355C115.761 158.19 115.805 156.809 116.366 155.687C116.927 154.564 118.049 153.701 119.301 153.485C120.164 153.313 121.027 153.399 121.891 153.226C122.84 153.01 123.703 152.363 124.135 151.457C124.61 150.593 124.48 149.514 123.919 148.694Z" fill="#008FD6"/>
<path d="M69.0166 138.681C68.5418 139.026 68.4555 139.673 68.067 140.407C67.7217 141.055 67.2901 141.659 66.8153 142.22C66.2974 142.824 65.7363 143.04 65.1752 143.601C64.3551 144.378 62.2401 145.5 61.8517 145.846C61.5064 146.148 61.0316 146.838 61.0316 147.313C60.9884 147.745 63.4487 148.953 64.0098 148.867C67.2901 148.478 70.4841 147.615 73.635 146.623C73.7645 146.579 73.894 146.536 73.9803 146.407C74.0666 146.32 74.0666 146.148 74.1098 146.018C74.3256 144.508 74.4551 143.04 74.5846 141.529C74.714 140.278 74.7141 138.551 75.4478 136.695C75.0593 136.652 74.4119 136.609 74.0234 136.825C73.6782 137.04 73.7213 137.515 73.3328 137.817C73.0307 138.033 72.6854 138.12 72.3401 138.206C71.5632 138.378 70.7863 138.465 70.0093 138.465C69.5777 138.465 69.2324 138.551 69.0166 138.681Z" fill="#E02E49"/>
<path d="M70.6136 138.465C70.6136 138.465 70.5704 138.767 70.5704 138.983C70.3114 141.573 68.8871 144.551 66.1679 145.241C65.8657 145.328 65.5204 145.371 65.1751 145.285C64.8298 145.198 64.5709 144.939 64.5277 144.594C64.4845 144.033 65.132 143.601 65.4773 143.256C66.0815 142.652 66.5995 142.004 67.0743 141.314C67.5491 140.623 67.8944 139.846 68.2828 139.112C68.6281 138.292 70.6136 138.465 70.6136 138.465Z" fill="#3F3161"/>
<path d="M67.3334 146.666C67.8945 146.579 68.4556 146.493 68.9736 146.45C69.0167 146.45 68.3261 147.184 68.283 147.227C67.9808 147.572 67.8082 148.09 67.5924 148.479C67.1608 148.392 66.686 148.522 66.2543 148.651C65.0026 148.953 63.1467 149.342 61.7655 148.694C61.0317 148.349 60.8159 147.443 61.118 146.666C61.2475 146.364 61.5928 146.062 61.8518 145.846C61.9813 146.882 63.9236 147.011 65.2185 146.968C65.9091 146.925 66.6428 146.795 67.3334 146.666Z" fill="#3F3161"/>
<path d="M74.1963 139.673C73.8078 140.364 73.8941 141.184 73.5488 141.832C72.8151 143.126 71.736 144.076 70.5706 144.982C69.6642 145.673 68.3694 145.846 67.5493 146.666C67.4629 146.752 67.4198 146.968 67.3335 147.054C66.8587 147.745 66.5997 149.212 67.4198 149.817C68.1104 150.335 69.5347 150.291 70.3548 150.335C72.1245 150.421 73.1604 149.601 75.3617 149.946C75.707 149.86 76.2681 149.73 76.6565 149.601C77.3903 148.953 78.5557 148.867 79.2031 148.435C79.4189 148.306 79.6347 148.133 79.7211 147.874C80.1095 147.011 79.8937 145.803 79.6347 144.896C79.2894 143.731 79.2894 142.436 79.3758 141.227C79.4621 140.062 79.8074 138.897 80.498 137.947C79.98 137.688 79.3758 137.472 78.8578 137.731C78.5557 137.861 78.383 138.163 78.0809 138.335C77.6061 138.681 76.1817 138.551 75.189 138.81C74.6711 138.94 74.3689 139.328 74.1963 139.673Z" fill="#E02E49"/>
<path d="M75.6637 139.76C75.8795 139.803 76.0954 139.889 76.268 139.975C76.6565 140.191 76.9586 140.537 76.9586 140.968C76.9586 141.184 76.8723 141.4 76.786 141.616C76.2248 142.911 75.4479 144.119 74.3689 145.025C73.2898 145.932 71.9518 146.536 70.5274 146.536C70.3116 146.536 70.0526 146.493 69.88 146.364C69.621 146.148 69.6642 145.759 69.8368 145.5C70.1389 145.025 70.7432 144.723 71.1317 144.335C71.736 143.731 72.2539 143.083 72.7287 142.393C73.1603 141.745 73.4625 140.537 74.1099 140.105C74.4983 139.76 75.1026 139.673 75.6637 139.76Z" fill="#3F3161"/>
<path d="M67.2038 149.86C66.5995 149.471 66.5995 148.565 66.8153 147.788C66.9448 147.4 67.5491 146.666 67.5491 146.666C67.5491 146.666 67.5491 146.838 67.5491 146.968C67.8081 147.961 68.9735 148.263 69.923 148.392C71.0021 148.565 71.9948 147.961 73.117 148.133C74.0235 148.263 75.0162 148.781 75.2752 149.644C75.3183 149.773 75.3615 149.946 75.3615 149.946C75.3615 149.946 71.8653 150.853 70.2252 150.68C69.1893 150.55 68.1102 150.378 67.2038 149.86Z" fill="#3F3161"/>
<path d="M77.9082 146.061C77.8219 146.191 77.7355 146.32 77.6492 146.493C77.3902 147.011 77.2176 147.572 77.045 148.09C77.0018 148.306 76.786 149.558 76.6565 149.601C77.6061 149.342 78.2103 149.126 78.9441 148.738C79.3326 148.565 79.721 148.306 79.98 147.961C80.3253 147.443 80.3253 146.752 80.1958 146.105C80.0663 145.457 79.721 144.939 79.5915 144.335C78.9009 144.896 78.383 145.371 77.9082 146.061Z" fill="#3F3161"/>
<path d="M77.6493 170.707C77.1313 172.132 76.9155 173.729 77.3471 175.153C77.6061 176.059 78.1241 176.923 78.1672 177.872C78.1672 178.563 77.8651 179.081 77.7356 179.728C77.6061 180.419 77.6493 181.109 77.6493 181.8C77.6924 183.181 77.9083 184.519 77.9514 185.944C77.9514 186.246 77.9083 186.418 77.9083 186.807C78.0377 187.454 78.383 188.058 78.8578 188.62C80.757 190.648 83.2604 190.562 86.0228 190.476C88.0514 190.389 89.6053 190.13 90.5117 189.612C91.7634 188.835 92.1519 187.886 92.4108 185.339C92.0224 183.742 92.4108 182.836 92.2813 181.411C91.936 177.958 91.6339 174.505 91.2886 171.052C91.116 169.283 90.7707 168.074 88.9147 167.513C88.1809 167.297 87.404 167.211 86.6271 167.125C84.4258 166.909 82.7424 166.693 80.6275 167.427C79.8506 167.686 79.4189 167.556 78.901 168.204C78.3399 168.808 77.9514 169.844 77.6493 170.707Z" fill="#E02E49"/>
<path d="M87.9218 166.521C87.5765 166.477 87.2312 166.434 86.8428 166.391C84.5983 166.175 82.3107 166.348 80.1094 166.952C79.6346 167.082 79.203 167.211 78.8146 167.513C78.4693 167.772 78.2535 168.161 78.0376 168.549C76.9586 170.75 76.8723 173.254 77.0017 175.628C77.0881 177.959 76.6564 180.203 76.0522 182.491C75.9227 183.009 76.009 183.138 76.268 183.138C76.8291 183.181 77.6923 183.268 77.6923 183.268C77.7355 184.562 77.7787 186.548 77.9082 186.721C78.4261 185.167 78.6851 180.289 78.7714 180.074C78.8146 179.901 78.9872 179.858 79.0304 179.685C79.0735 179.556 79.1167 179.426 79.1167 179.297C79.1167 178.692 79.1167 178.131 79.1167 177.527C79.1167 177.484 79.1167 177.441 79.0735 177.397C79.0304 177.354 78.944 177.354 78.9009 177.268C78.8577 177.225 78.8577 177.182 78.8577 177.138C78.8577 176.448 78.8146 175.714 78.8146 175.023C78.8146 174.203 78.8577 173.34 78.9872 172.52C79.0304 172.347 79.0304 172.132 79.203 172.002C79.3325 171.873 79.5052 171.873 79.6778 171.829C80.7137 171.743 81.7496 171.657 82.7855 171.571C83.0013 171.571 83.7782 171.527 83.994 173.426C84.0804 174.203 84.253 176.232 84.253 176.534C84.253 176.836 84.3393 177.225 84.1667 177.527C84.1235 177.613 84.0804 177.7 84.0372 177.786C83.994 177.872 83.994 177.915 83.994 178.002C83.9509 178.692 83.9509 179.383 83.9077 180.03C83.9077 180.117 83.9077 180.246 83.9509 180.332C83.994 180.376 83.994 180.419 84.0372 180.462C84.2099 180.678 84.3825 180.85 84.4688 181.153C84.512 181.412 84.512 183.397 84.4688 184.088C84.4688 185.426 84.3825 186.721 84.0372 188.059C84.5552 188.274 85.1594 188.361 85.7205 188.274C86.4111 188.188 86.4543 188.015 86.4111 187.368C86.368 186.116 86.3248 184.908 86.2817 183.656C86.2385 182.965 86.2385 182.232 86.1953 181.541C86.1953 181.239 86.109 180.85 86.1953 180.548C86.2385 180.289 86.368 180.073 86.368 179.771C86.368 179.642 86.368 179.469 86.368 179.34C86.3248 178.951 86.3248 178.563 86.2817 178.131C86.2817 177.829 86.0227 177.613 85.9795 177.311C85.9364 176.879 85.9364 176.405 85.9364 175.973C85.8932 175.024 85.85 174.074 85.85 173.081C85.85 172.65 85.7637 172.132 86.109 171.873C87.3607 170.88 90.0799 171.139 90.4252 171.484C90.9864 174.247 91.0727 181.498 91.3748 184.692C91.3748 184.908 91.5475 185.296 91.8496 185.296C92.1517 185.296 92.4107 185.339 92.4107 185.339C92.4107 185.339 92.5834 174.376 92.6265 173.47C92.7129 171.7 92.1086 170.017 91.418 168.635C90.6411 167.125 89.5188 166.736 87.9218 166.521Z" fill="#0062BA"/>
<path d="M83.4761 154.823C83.433 155.687 83.6488 156.593 84.0373 157.413C84.7279 158.838 93.0582 179.771 97.8924 189.699C98.9715 191.943 101.604 192.893 102.986 192.677C107.259 191.037 106.482 187.843 105.877 186.936C104.712 185.123 103.676 183.267 102.64 181.368C101.432 179.124 91.0296 157.715 88.9146 153.658C88.5262 152.881 88.0514 152.061 87.2744 151.629C85.5911 150.766 83.7783 152.924 83.5193 154.392C83.4762 154.521 83.4761 154.651 83.4761 154.823Z" fill="#E02E49"/>
<path d="M90.5978 160.737C90.641 160.78 90.641 160.866 90.6841 160.909C90.8136 161.125 90.8568 161.47 91.1589 161.47C91.5042 161.514 91.72 161.211 91.5905 160.909C91.3316 160.219 91.0294 159.485 90.6841 158.837C90.4251 158.32 90.123 157.456 89.6051 157.111C89.4324 156.982 89.1734 156.982 89.1303 157.284C89.0871 157.845 89.4756 158.492 89.6914 159.01C90.0367 159.571 90.3388 160.176 90.5978 160.737Z" fill="#CFF0FF"/>
<path d="M93.9645 168.204C94.0508 168.376 94.1372 168.549 94.2666 168.635C94.4393 168.765 94.6551 168.808 94.8278 168.679C94.8709 168.635 94.9141 168.549 94.9141 168.506C94.9141 168.463 94.9141 168.42 94.8709 168.376C94.7414 167.988 94.6119 167.556 94.4825 167.168C94.2235 166.477 94.0077 165.787 93.7055 165.182C93.576 164.967 93.4034 164.535 93.1444 164.449C92.5833 164.276 92.8423 165.398 92.8854 165.657C93.0149 166.046 93.1444 166.391 93.3171 166.779C93.4466 167.082 93.576 167.341 93.7055 167.643C93.7919 167.815 93.8782 168.031 93.9645 168.204C93.9213 168.161 93.9213 168.161 93.9645 168.204Z" fill="#CFF0FF"/>
<path d="M97.288 175.153C97.3311 175.196 97.3311 175.239 97.3743 175.326C97.4606 175.455 97.5469 175.628 97.7196 175.628C97.8059 175.628 97.8922 175.541 97.9354 175.498C98.0649 175.282 97.9786 175.023 97.8922 174.808C97.5901 174.074 97.2448 173.426 96.8995 172.693C96.7269 172.347 96.5974 172.002 96.4679 171.657C96.3816 171.398 96.2952 171.096 95.9499 171.182C95.8636 171.225 95.7341 171.268 95.691 171.355C95.6046 171.484 95.6478 171.7 95.691 171.873C95.9068 172.477 96.1226 173.038 96.4247 173.599C96.7268 174.117 96.9858 174.635 97.288 175.153Z" fill="#CFF0FF"/>
</g>
</g>
<defs>
<clipPath id="clip0_1514_866">
<rect width="202" height="202" fill="white"/>
</clipPath>
</defs>
</svg>
